<?xml version="1.0" encoding="UTF-8"?>
<svg id="Layer_1" data-name="Layer 1" xmlns="http://www.w3.org/2000/svg" viewBox="0 0 150.29 168.1">
  <defs>
    <style>
      .cls-1 {
        fill: #009245;
        stroke-width: 0px;
      }
    </style>
  </defs>
  <polygon class="cls-1" points="74.96 0 135.4 168.1 115.76 168.1 97.45 115.62 96.45 112.75 64.76 21.91 74.96 0"/>
  <polyline class="cls-1" points="26.58 116.15 3.7 168.1 0 168.1 69.73 8.29 64.76 28.01 28.11 113.21 96.45 112.75"/>
  <g>
    <path class="cls-1" d="M7.81,114.82c7.25-5.7,16.69-7.63,25.8-9.04,16.46-2.53,33.22-3.88,49.77-2.05,15.32,1.69,30.31,6.09,45.71,6.7,6.65.26,13.37-.2,19.77-2.01-4.54,3.22-10,4.82-15.37,6.3-7.79,2.16-15.62,4.2-23.56,5.73-25.36,4.91-51.72,4.61-76.96-.88-8.37-1.82-16.65-4.21-25.17-5.14"/>
    <path class="cls-1" d="M8.87,115.88c6.6-5.11,15.03-7,23.09-8.32,9.49-1.56,19.08-2.65,28.69-3.03,9.68-.38,19.35.07,28.93,1.54s18.59,3.52,27.97,4.8c10.52,1.43,21.37,1.88,31.69-1l-1.16-2.74c-3.49,2.44-7.44,3.93-11.5,5.15-4.42,1.32-8.89,2.49-13.35,3.63-9.21,2.34-18.52,4.23-27.97,5.3-18.79,2.14-37.92,1.5-56.51-1.99-10.35-1.94-20.47-5.11-30.96-6.29-1.92-.22-1.9,2.79,0,3,9.51,1.07,18.69,3.91,28.05,5.77,9.36,1.86,18.86,3.03,28.38,3.5,19.11.93,38.17-1.12,56.75-5.64,5.15-1.25,10.29-2.61,15.38-4.09,4.64-1.34,9.26-2.97,13.24-5.76,1.34-.93.57-3.22-1.16-2.74-18.82,5.25-38.44-.7-57.12-3.65-19.51-3.08-39.09-1.95-58.53,1.08-9.21,1.44-18.53,3.53-26.05,9.36-.65.5-.52,1.59,0,2.12.63.64,1.48.49,2.12,0h0Z"/>
  </g>
</svg>