<?xml version="1.0" encoding="UTF-8"?>
<svg id="Layer_1" data-name="Layer 1" xmlns="http://www.w3.org/2000/svg" viewBox="0 0 118.74 176.92">
  <defs>
    <style>
      .cls-1 {
        fill: #009245;
        stroke-width: 0px;
      }
    </style>
  </defs>
  <polygon class="cls-1" points="2.01 176.92 19.23 176.92 19.23 94.63 90.26 94.63 90.26 91.22 19.85 91.22 19.23 15.54 94.6 15.54 94.6 12.13 0 12.13 2.01 176.92"/>
  <g>
    <path class="cls-1" d="M3.43,12.98C26.93,5.09,52.59-.55,77.91,2.21c13.19,1.44,27.15,5.06,39.32.81-11.16,9.88-26.19,17.02-42.51,20.19-16.32,3.18-33.86,2.38-49.61-2.26-8.04-2.37-15.57-5.69-23.53-8.21"/>
    <path class="cls-1" d="M3.82,14.43c14.47-4.85,29.35-8.78,44.54-10.49,7.47-.84,15-1.16,22.51-.78s15.02,1.71,22.53,2.62c8.07.98,16.43,1.35,24.23-1.31l-1.46-2.51c-11.03,9.71-24.82,16.03-39.1,19.23-15.89,3.56-32.75,3.25-48.51-.84-9.08-2.36-17.66-6.22-26.59-9.06-1.84-.59-2.63,2.31-.8,2.89,8.21,2.61,16.11,6.1,24.4,8.46s16.28,3.54,24.58,3.89c16.16.67,32.45-2.28,47.19-8.99,7.58-3.46,14.69-7.95,20.94-13.46,1.11-.98-.06-2.99-1.46-2.51-6.97,2.38-14.38,2.2-21.61,1.42s-14.93-2.23-22.48-2.72c-15.15-.99-30.38.87-45.14,4.25-8.31,1.9-16.5,4.31-24.59,7.02-1.82.61-1.04,3.51.8,2.89h0Z"/>
  </g>
</svg>