<svg width="105" height="103" xmlns="http://www.w3.org/2000/svg" xmlns:xlink="http://www.w3.org/1999/xlink" xml:space="preserve" overflow="hidden"><g transform="translate(-612 -50)"><g><g><g><g><path d="M52.0048 0C80.6199 0 103.982 22.8657 103.982 50.9169 103.982 78.9527 80.6199 101.834 52.0048 101.834 23.3622 101.837 0 78.9558 0 50.9169 0 22.8657 23.3622 0 52.0048 0Z" fill="#3B4095" fill-rule="nonzero" fill-opacity="1" transform="matrix(1 0 0 1.0016 613.007 51)"/><path d="M52.0048 0.551645C80.3196 0.551645 103.434 23.1967 103.434 50.9169 103.434 78.6524 80.3196 101.282 52.0048 101.282 23.6625 101.282 0.548581 78.6524 0.548581 50.9169 0.551645 23.1967 23.6656 0.551645 52.0048 0.551645Z" fill="#FFFFFF" fill-rule="nonzero" fill-opacity="1" transform="matrix(1 0 0 1.0016 613.007 51)"/><path d="M83.3536 79.9916 80.9264 77.7973 81.5608 77.0955C82.707 75.8267 83.3138 76.1301 84.4017 77.1078L86.3172 78.8301 88.2081 76.7339 87.1477 75.7807 86.498 76.4979 84.8982 75.0636C84.0708 74.3311 83.3965 74.2913 82.6089 74.9533 83.1054 73.8071 82.9368 72.8969 82.0971 72.1521 80.6904 70.8834 79.3266 71.3124 77.6717 73.1329L74.8583 76.2619 75.9064 77.215 76.6389 76.3998 82.1277 81.3524 81.3953 82.1676 82.4587 83.1207 85.2445 80.0162 84.1811 79.063 83.3536 79.9916ZM73.0777 87.8924 72.5536 86.0015 75.2168 84.1964 76.7737 85.3947 75.8635 86.0015 76.6634 87.1876 79.8752 85.0086 79.0784 83.8378 78.3061 84.3619 72.0847 79.6576 73.0501 78.9956 72.2655 77.8126 67.9198 80.7486 68.7074 81.9193 69.6299 81.3003 71.6158 88.8701 70.9385 89.3267 71.7415 90.4974 74.7755 88.4563 73.991 87.2734ZM65.7132 90.9541 63.6875 83.8654 64.9562 83.4915 65.3547 84.9136 66.9422 84.46 66.1423 81.6711 58.6675 83.8256 59.4674 86.6083 61.0518 86.1547 60.6534 84.7327 61.9222 84.3619 63.948 91.4628 62.6792 91.8214 63.0807 93.2005 67.3835 91.9593 66.982 90.5955ZM52.2132 93.8073C52.958 94.4539 53.908 94.7298 54.9837 94.6348 56.8992 94.4693 58.0454 93.0902 57.8799 91.1992 57.7297 89.4493 56.6233 88.7597 54.4995 88.3429L53.243 88.0947C52.4032 87.9292 51.9895 87.6687 51.9466 86.9638 51.8792 86.262 52.3879 85.6246 53.3104 85.5449 54.3585 85.4621 55.091 85.9985 55.517 87.1722L56.9359 87.0466 56.6754 84.0125 55.2565 84.1382 55.3116 84.8002C54.7048 84.3037 53.8498 84.0708 52.912 84.1535 51.159 84.3037 49.9607 85.6705 50.1109 87.3255 50.2365 88.8302 51.1896 89.5719 52.9917 89.9182L54.193 90.1389C55.4189 90.3748 56.0533 90.7457 56.1238 91.5731 56.1943 92.4129 55.5476 93.1606 54.6068 93.2403 53.3931 93.3353 52.4982 92.6488 51.9864 91.2115L50.5246 91.3372 50.828 94.8003 52.2899 94.6623 52.2132 93.8073ZM35.3727 91.4352 42.1733 93.6418 43.1111 90.7732 41.5236 90.2645 41.0271 91.7815 38.5999 90.9939 40.8769 83.988 42.063 84.3742 42.5165 83.0104 38.5447 81.714 38.1064 83.0655 39.1392 83.4088 36.8622 90.43 35.8171 90.0868ZM26.0377 86.5409 32.2161 90.1113 33.7331 87.491 32.2988 86.6635 31.4836 88.0457 29.277 86.7738 32.9608 80.3901 34.0488 81.0122 34.7659 79.7679 31.1404 77.687 30.4355 78.9129 31.3886 79.4645 27.6926 85.8513 26.7425 85.312ZM19.3352 78.5267 21.1158 77.687 23.3469 79.9916 22.4366 81.7416 21.6797 80.954 20.6591 81.9347 23.3469 84.7205 24.3674 83.7398 23.7208 83.0655 27.2789 76.1148 28.091 76.9699 29.1116 75.9769 25.4738 72.2104 24.4532 73.1911 25.2225 73.991 18.1216 77.2579 17.5576 76.6818 16.5371 77.6594 19.0716 80.3073 20.1075 79.3143ZM79.2316 30.5887 83.2433 37.2636 85.836 35.7068 84.981 34.2878 83.6141 35.1122 81.9592 32.3693 84.7726 30.6715 86.1793 33.0313 87.491 32.2314 86.0843 29.8869 88.2755 28.563 89.9611 31.361 88.8027 32.0659 89.6148 33.4297 92.0022 31.9954 87.9997 25.3205 86.7708 26.053 87.3377 26.9908 81.0091 30.7971 80.4422 29.8593ZM74.4016 24.7566C74.4445 25.7343 74.8828 26.6169 75.6827 27.334 77.117 28.6304 78.8945 28.5231 80.1633 27.1134 81.3493 25.8047 81.1011 24.536 79.9579 22.7002L79.2837 21.6122C78.8301 20.8828 78.7474 20.3986 79.2163 19.8899 79.6852 19.3536 80.5004 19.3107 81.1899 19.9328 81.9776 20.6346 82.0848 21.5326 81.5209 22.6512L82.5813 23.6012 84.6101 21.3395 83.5467 20.3864 83.1054 20.8828C83.0502 20.0952 82.6518 19.3107 81.9469 18.6763 80.6383 17.4902 78.8025 17.5576 77.6993 18.7866 76.694 19.9052 76.789 21.1035 77.782 22.6757L78.4286 23.6962C79.1029 24.7597 79.2561 25.4738 78.7045 26.0806 78.1406 26.715 77.1599 26.7425 76.4427 26.1082 75.5478 25.3083 75.4344 24.1774 76.1393 22.8259L75.0514 21.8329 72.7344 24.4103 73.8224 25.3879 74.4016 24.7566ZM66.5131 19.3628 67.9474 16.4268 68.8024 16.8528C70.3348 17.5975 70.2091 18.2595 69.5625 19.5865L68.4439 21.8881 70.9814 23.1293 71.6036 21.8482 70.7209 21.4192 71.6587 19.4884C72.1552 18.4954 71.9897 17.8335 71.1347 17.2665 72.3759 17.4167 73.2033 17.006 73.6998 15.9977 74.5273 14.3029 73.7427 13.0863 71.5331 12.0136L67.739 10.1656 67.1199 11.4466 68.0976 11.9278 64.8551 18.5629 63.8805 18.0817 63.2615 19.3628 66.9973 21.1832 67.6195 19.9021 66.5131 19.3628ZM53.9785 17.6956 61.674 18.9214 62.1429 15.9303 60.5155 15.6667 60.2673 17.2542 57.0953 16.7578 57.604 13.5153 60.3224 13.9444 60.5553 12.4273 57.8523 11.9983 58.2537 9.47604 61.4809 9.98478 61.2602 11.3087 62.8324 11.5723 63.2737 8.81407 55.5783 7.59738 55.3545 9.00714 56.4456 9.17264 55.2871 16.4666 54.2114 16.2889ZM47.6193 18.3422 48.8482 18.192 50.8341 8.86923 51.5237 8.78649 51.3582 7.37979 47.9104 7.79352 48.0882 9.21248 49.0413 9.08989 47.8552 14.9097 45.2748 9.55879 46.2003 9.44846 46.0225 8.02644 42.4767 8.46776 42.6422 9.87445 43.3563 9.79171ZM36.4607 19.7642 34.3675 14.0118 40.8892 19.8746 42.3357 19.3505 39.2649 10.8827 40.2977 10.5088 39.8012 9.17264 36.1174 10.5088 36.6017 11.8481 37.6345 11.4742 39.4273 16.4114 33.7178 11.3915 30.7818 12.4549 31.263 13.7911 32.2988 13.4203 34.8211 20.3588 33.7883 20.7296 34.2848 22.0658 37.9655 20.7296 37.4812 19.3903ZM21.5418 26.2032C23.5277 28.4097 26.7824 28.6304 29.0717 26.5617 30.2577 25.5013 30.8768 24.1774 30.8921 22.6726 30.9179 21.3231 30.4243 20.0153 29.513 19.0195 28.4932 17.869 27.0233 17.219 25.486 17.2389 24.1896 17.2389 23.0036 17.7231 21.9708 18.6609 19.6662 20.7449 19.5405 23.9843 21.5418 26.2032ZM17.6097 29.087 18.382 27.7784 15.4583 26.0254 14.686 27.3218 15.4307 27.7355C14.5634 27.8857 13.736 28.5231 13.1016 29.5713 11.5846 32.1088 12.2465 35.1429 14.9618 36.7856 17.5822 38.3577 20.6867 37.6008 22.2712 34.9498 23.402 33.0619 23.1538 30.8554 21.5693 29.2679L20.6591 30.7849C21.4038 31.9709 21.459 32.9516 20.797 34.0672 19.7366 35.8171 17.8059 36.2615 15.9548 35.1429 14.0945 34.0396 13.5705 32.1088 14.6155 30.3558 15.2653 29.2648 16.3287 28.7959 17.6097 29.087Z" fill="#3B4095" fill-rule="nonzero" fill-opacity="1" transform="matrix(1 0 0 1.0016 613.007 51)"/><path d="M32.2008 74.9134 51.5788 62.5167 70.9814 74.9134 64.2115 53.4299 81.8213 40.9474 59.7708 40.9474 51.5788 17.1439 43.4972 40.9474 21.3763 40.9474 39.0565 53.4299Z" fill="#CF4037" fill-rule="nonzero" fill-opacity="1" transform="matrix(1 0 0 1.0016 613.007 51)"/><path d="M61.5483 2.84097C61.5636 2.84097 62.3635 2.97889 63.0531 3.19954 63.1916 3.25422 63.3482 3.18621 63.4031 3.04765 63.4061 3.03918 63.4092 3.03055 63.4116 3.02179 63.4647 2.88082 63.3936 2.72349 63.2526 2.67038 63.2455 2.66769 63.2382 2.66531 63.2308 2.66322 62.7126 2.49332 62.1818 2.36421 61.6433 2.27707 61.4931 2.24949 61.3399 2.35982 61.3123 2.51305 61.2847 2.66629 61.3981 2.81339 61.5483 2.84097ZM65.37 6.08342C65.3822 6.08342 66.1545 6.28876 66.8318 6.55232 66.9851 6.60749 67.1506 6.54006 67.2057 6.38683 67.2609 6.23359 67.1935 6.0681 67.0402 6.01293 66.3384 5.73711 65.5508 5.52871 65.5232 5.51645 65.3681 5.47876 65.2106 5.56895 65.1646 5.72179 65.1233 5.87812 65.2146 6.03877 65.37 6.08342ZM68.4715 7.11623C68.4715 7.11623 69.2315 7.37672 69.8904 7.68319 70.0274 7.75 70.1926 7.69315 70.2594 7.55625 70.2609 7.55264 70.2628 7.54896 70.2643 7.54528 70.3311 7.40838 70.2744 7.24326 70.1374 7.17645 70.1337 7.17467 70.1301 7.17298 70.1264 7.17139 69.648 6.94332 69.1555 6.74576 68.6523 6.5799 68.5116 6.52636 68.3538 6.5971 68.3004 6.73789 68.298 6.74439 68.2955 6.75098 68.2937 6.75766 68.2401 6.89845 68.3109 7.056 68.4515 7.10954 68.4583 7.11203 68.4647 7.11426 68.4715 7.11623ZM71.4932 8.38501C71.4932 8.38501 72.238 8.68841 72.8601 9.04698 72.998 9.11441 73.1788 9.07457 73.2585 8.93666 73.3259 8.79874 73.2861 8.61793 73.1482 8.53824 72.6796 8.27977 72.1966 8.04851 71.7016 7.84562 71.5527 7.79101 71.3875 7.86423 71.3278 8.01112 71.2698 8.15933 71.3431 8.32638 71.4914 8.38424 71.492 8.38452 71.4926 8.38476 71.4932 8.38501ZM74.4016 9.84687C74.4139 9.84687 75.131 10.2054 75.7256 10.6069 75.8635 10.6897 76.0321 10.6621 76.1271 10.5242 76.2141 10.3913 76.177 10.213 76.0443 10.1258 75.599 9.83961 75.1387 9.57773 74.6652 9.3412 74.515 9.27377 74.3465 9.32587 74.279 9.46685 74.207 9.60304 74.2591 9.77175 74.3955 9.84368 74.3973 9.84479 74.3995 9.84583 74.4016 9.84687ZM77.2304 11.5018C77.2304 11.5141 77.9076 11.9155 78.4869 12.3569 78.6122 12.4513 78.7903 12.4266 78.8853 12.3017 78.98 12.1754 78.9555 11.9963 78.8301 11.9002 78.4093 11.5837 77.9726 11.2891 77.5215 11.0176 77.3946 10.9363 77.2261 10.9732 77.1445 11.1 77.1415 11.1051 77.1384 11.1103 77.1354 11.1157 77.0538 11.2444 77.0924 11.4148 77.2212 11.4962 77.2242 11.4981 77.2273 11.5 77.2304 11.5018ZM79.9181 13.3774C79.9181 13.3774 80.5678 13.8187 81.1195 14.3029 81.231 14.4066 81.4057 14.4003 81.5093 14.2887 81.5133 14.2844 81.5173 14.28 81.5209 14.2754 81.6239 14.1654 81.6181 13.9928 81.5081 13.8898 81.5035 13.8854 81.4986 13.8811 81.4933 13.8769 80.9264 13.3651 80.2644 12.9238 80.2368 12.8993 80.1035 12.8141 79.9267 12.8509 79.8384 12.9821 79.7514 13.1131 79.7869 13.29 79.9178 13.3772 79.9178 13.3773 79.9181 13.3773 79.9181 13.3774ZM82.4557 15.4062C82.4679 15.4062 83.09 15.9027 83.6019 16.4268 83.7073 16.5413 83.8856 16.5485 84.0003 16.443 84.1149 16.3374 84.1219 16.1591 84.0165 16.0446 84.0113 16.039 84.0058 16.0335 84.0003 16.0284 83.4762 15.489 82.8418 14.9802 82.8296 14.9527 82.7039 14.8546 82.5108 14.8699 82.4158 14.9925 82.3162 15.1188 82.3337 15.3013 82.4557 15.4062ZM84.8706 17.6251C84.8706 17.6251 85.4621 18.1614 85.9188 18.713 86.0236 18.8345 86.205 18.8533 86.3325 18.7559 86.4542 18.6533 86.4695 18.4716 86.3668 18.35 86.3647 18.3474 86.3625 18.3448 86.3601 18.3422 85.8789 17.7507 85.2721 17.2267 85.2445 17.196 85.1342 17.0857 84.9534 17.0979 84.8431 17.2236 84.7297 17.337 84.745 17.5147 84.8706 17.6251ZM87.1048 19.9971C87.1171 19.9971 87.6718 20.5886 88.0978 21.1556 88.1928 21.2813 88.3736 21.3088 88.4962 21.2108 88.6221 21.1167 88.6482 20.9385 88.5544 20.8124 88.11 20.2178 87.5461 19.6263 87.5339 19.5987 87.4235 19.4884 87.2305 19.4761 87.1201 19.5865 87.0067 19.6937 86.9945 19.8868 87.1048 19.9971ZM89.1735 22.5225C89.1888 22.5225 89.6975 23.1446 90.0837 23.7483 90.175 23.8771 90.3503 23.9133 90.4852 23.8311 90.6127 23.7389 90.6485 23.5646 90.5679 23.4296 90.1695 22.8105 89.6454 22.1761 89.6301 22.1486 89.5253 22.0271 89.3439 22.0083 89.2164 22.1057 89.0944 22.2116 89.0757 22.3939 89.1735 22.5225ZM91.0767 25.1979C91.0767 25.1979 91.5456 25.8323 91.8919 26.4667 91.9752 26.6022 92.1527 26.6445 92.2881 26.5611 92.4086 26.4871 92.4573 26.3368 92.4037 26.2062 92.1419 25.7381 91.8511 25.2867 91.5333 24.8547 91.4383 24.729 91.2575 24.7015 91.1349 24.7995 91.0123 24.8976 90.9816 25.0753 91.0767 25.1979ZM92.7868 27.9684C92.7868 27.9807 93.2005 28.658 93.4886 29.32 93.5609 29.4604 93.7267 29.5248 93.8747 29.4701 94.0151 29.3978 94.0794 29.2321 94.0249 29.084 93.7062 28.3822 93.2802 27.7049 93.2679 27.6773 93.1873 27.5448 93.0148 27.5023 92.8818 27.5823 92.75 27.6585 92.7049 27.8273 92.7812 27.9591 92.7831 27.9623 92.7849 27.9654 92.7868 27.9684ZM94.2762 30.8799C94.2762 30.8921 94.6623 31.597 94.8983 32.259 94.9535 32.4092 95.119 32.495 95.2569 32.4398 95.4101 32.3847 95.4929 32.2192 95.4377 32.0812 95.1895 31.3641 94.8033 30.647 94.7911 30.6194 94.7154 30.4824 94.5465 30.4275 94.4049 30.4937 94.2642 30.5604 94.2042 30.7285 94.271 30.8692 94.2725 30.8728 94.2744 30.8765 94.2762 30.8799ZM95.5848 33.8863C95.5848 33.9017 95.9035 34.6035 96.0936 35.3084 96.1518 35.4585 96.302 35.5566 96.4521 35.5137 96.6054 35.4585 96.7004 35.3084 96.6575 35.1551 96.5012 34.6427 96.3118 34.1413 96.0905 33.6534 96.0353 33.5002 95.8576 33.4481 95.7197 33.5155 95.5726 33.5676 95.5174 33.7484 95.5848 33.8863ZM96.6605 36.9633C96.6605 36.9633 96.9363 37.7203 97.0743 38.4252 97.1018 38.5784 97.2551 38.6734 97.4206 38.6458 97.5707 38.6182 97.6688 38.465 97.6412 38.3026 97.5303 37.7822 97.3829 37.2701 97.1999 36.7702 97.1451 36.6185 96.9783 36.5392 96.826 36.5925 96.6808 36.6522 96.6078 36.8153 96.6605 36.9633ZM97.5156 40.1046C97.5278 40.1169 97.7362 40.8892 97.8466 41.6094 97.8729 41.7645 98.02 41.869 98.1751 41.8426 98.176 41.8426 98.1766 41.8423 98.1776 41.8423 98.3329 41.8175 98.439 41.6716 98.4145 41.5162 98.4142 41.5144 98.4138 41.5128 98.4135 41.5113 98.3032 40.7666 98.0826 39.979 98.0826 39.9544 98.0274 39.8012 97.8772 39.7062 97.724 39.746 97.5707 39.8012 97.4757 39.9544 97.5156 40.1046ZM98.1653 43.3195C98.1653 43.3195 98.3308 44.1071 98.386 44.8212 98.4013 44.9867 98.5392 45.097 98.6894 45.0848 98.8395 45.0694 98.9652 44.9315 98.9499 44.7813 98.8947 44.0213 98.7292 43.2367 98.7292 43.1938 98.7016 43.0437 98.5484 42.9456 98.3829 42.9732 98.2327 43.0008 98.1347 43.154 98.1653 43.3195ZM98.5913 46.5466C98.5913 46.5619 98.7016 47.3618 98.7016 48.079 98.7016 48.2291 98.8273 48.3548 98.9774 48.3548 99.1313 48.36 99.2603 48.2392 99.2655 48.0854 99.2655 48.0832 99.2655 48.0811 99.2655 48.079 99.2655 47.3189 99.1552 46.5068 99.1552 46.4792 99.1439 46.329 99.013 46.2162 98.8628 46.2276 98.8539 46.2285 98.845 46.2294 98.8365 46.2309 98.6878 46.2423 98.5766 46.3719 98.5879 46.5203 98.5885 46.5291 98.5898 46.538 98.5913 46.5466ZM98.7844 49.786C98.7844 49.786 98.8395 50.5859 98.7844 51.2908 98.7706 51.4443 98.8837 51.5798 99.0372 51.5936 99.0396 51.5939 99.0424 51.5939 99.0449 51.5942 99.2002 51.6064 99.3357 51.4903 99.348 51.3352 99.348 51.3337 99.3483 51.3321 99.3483 51.3306 99.4034 50.5859 99.3483 49.786 99.3483 49.7462 99.3483 49.596 99.2104 49.4703 99.0449 49.4857 98.891 49.4955 98.7742 49.6279 98.784 49.7814 98.784 49.7829 98.7844 49.7845 98.7844 49.786ZM98.7445 53.056C98.7445 53.056 98.7445 53.8559 98.6495 54.5608 98.6253 54.7113 98.7274 54.8529 98.8778 54.8771 98.8846 54.878 98.891 54.8789 98.8978 54.8795 99.0482 54.9037 99.1898 54.8017 99.214 54.6512 99.215 54.6445 99.2159 54.638 99.2165 54.6313 99.3115 53.9019 99.3115 53.0867 99.3115 53.0591 99.3167 52.9052 99.1959 52.7762 99.0421 52.771 99.04 52.771 99.0378 52.771 99.0357 52.771 98.8837 52.7624 98.7534 52.8789 98.7448 53.0309 98.7442 53.0392 98.7442 53.0477 98.7445 53.056ZM98.481 56.2954C98.481 56.3107 98.4258 57.0953 98.2756 57.8002 98.248 57.9657 98.343 58.1189 98.4963 58.1434 98.6618 58.171 98.815 58.076 98.8395 57.9228 98.9928 57.178 99.0479 56.3628 99.0479 56.3353 99.0602 56.1799 98.9443 56.0441 98.789 56.0318 98.7887 56.0318 98.788 56.0318 98.7874 56.0318 98.6189 56.0196 98.481 56.1452 98.481 56.2954ZM97.9998 59.5225C97.9998 59.5348 97.8772 60.3224 97.6688 61.012 97.629 61.1652 97.724 61.3154 97.8772 61.3705 98.0274 61.4135 98.1806 61.3154 98.2358 61.1652 98.3789 60.658 98.4892 60.1419 98.5668 59.6206 98.5959 59.4677 98.4954 59.32 98.3421 59.2912 98.3394 59.2905 98.3366 59.2899 98.3338 59.2896 98.1791 59.2605 98.0301 59.3619 98.0007 59.5167 98.0004 59.5186 98.0001 59.5207 97.9998 59.5225ZM97.2827 62.7221C97.2827 62.7221 97.1049 63.4944 96.8689 64.1839 96.8138 64.3219 96.8965 64.4873 97.0467 64.5425 97.1846 64.5977 97.3501 64.5149 97.4053 64.3617 97.6535 63.6599 97.8343 62.8876 97.8466 62.8447 97.8738 62.6902 97.7779 62.5406 97.6259 62.5014 97.4721 62.4769 97.3243 62.5719 97.2827 62.7221ZM96.3295 65.8542C96.3295 65.8542 96.1242 66.6265 95.8177 67.2732 95.7589 67.4221 95.826 67.5913 95.971 67.6593 96.1089 67.7145 96.2897 67.6593 96.3418 67.5091 96.6605 66.8196 96.8812 66.0473 96.8934 66.0044 96.9363 65.8542 96.8383 65.701 96.6881 65.6458 96.5379 65.606 96.3847 65.701 96.3295 65.8542ZM95.1864 68.9005C95.1864 68.9128 94.9106 69.6575 94.5796 70.2919 94.5116 70.4335 94.567 70.6036 94.7053 70.678 94.8459 70.7482 95.0169 70.694 95.0914 70.5554 95.4346 69.8782 95.7135 69.1334 95.7258 69.1058 95.7788 68.9569 95.7059 68.7929 95.5603 68.7319 95.4107 68.6841 95.2495 68.7568 95.1864 68.9005ZM93.8349 71.8794C93.8226 71.8794 93.5039 72.5965 93.1177 73.2309 93.0362 73.3596 93.0748 73.53 93.2036 73.6116 93.2066 73.6134 93.2097 73.6152 93.2127 73.6171 93.3421 73.6977 93.5122 73.6584 93.5928 73.5291 93.5949 73.5257 93.5971 73.5224 93.5989 73.519 94.0126 72.8724 94.3314 72.1399 94.3436 72.1123 94.411 71.9744 94.3589 71.7936 94.2057 71.7384 94.0678 71.6741 93.89 71.7292 93.8349 71.8794ZM92.2627 74.7479C92.2627 74.7479 91.8765 75.4528 91.4628 76.029 91.3678 76.1669 91.3954 76.3477 91.518 76.4305 91.6559 76.5255 91.8367 76.4979 91.9164 76.3753 92.2317 75.9395 92.5174 75.4829 92.7714 75.0084 92.8376 74.8669 92.7828 74.698 92.6458 74.6223 92.5109 74.5549 92.3454 74.61 92.2627 74.7479ZM90.5097 77.4939C90.5097 77.5062 90.0684 78.1835 89.6148 78.7198 89.5045 78.8424 89.5167 79.0232 89.6424 79.1182 89.765 79.2285 89.9458 79.2163 90.0408 79.0906 90.5373 78.5145 90.9786 77.8372 90.9939 77.8096 91.073 77.6744 91.0374 77.501 90.9112 77.4081 90.7754 77.3281 90.601 77.3655 90.5097 77.4939ZM88.5391 80.1142C88.5391 80.1296 88.0855 80.7762 87.586 81.288 87.4756 81.3983 87.4756 81.5761 87.586 81.6864 87.6963 81.7968 87.8771 81.7968 87.9874 81.6864 88.5238 81.1348 88.9927 80.4851 89.008 80.4605 89.103 80.3226 89.0754 80.1418 88.9528 80.0621 88.8238 79.9638 88.6396 79.9867 88.5391 80.1142ZM86.4275 82.5966C86.4153 82.6089 85.9035 83.2188 85.3641 83.6999 85.2504 83.8127 85.2451 83.9944 85.3518 84.1137 85.4637 84.2289 85.6469 84.2344 85.7655 84.1259 86.3172 83.6019 86.8412 82.995 86.8535 82.9675 86.9638 82.8418 86.9485 82.6641 86.8259 82.5691 86.7183 82.4661 86.5476 82.4695 86.4447 82.577 86.4385 82.5832 86.433 82.5899 86.4275 82.5966ZM84.1382 84.9258C84.1259 84.9258 83.5712 85.4897 83.0073 85.9464 82.8838 86.0423 82.8593 86.2191 82.9521 86.3448 83.0471 86.4704 83.228 86.498 83.3506 86.3999 83.9574 85.9157 84.5213 85.3518 84.5366 85.3242 84.6512 85.2188 84.6583 85.0404 84.5528 84.9258 84.4474 84.8112 84.269 84.8041 84.1544 84.9096 84.1489 84.9148 84.1434 84.9203 84.1382 84.9258ZM81.6711 87.0772C81.6711 87.0772 81.0765 87.6166 80.4851 88.015 80.3524 88.1024 80.3153 88.2804 80.4023 88.4134 80.4897 88.5461 80.6677 88.5832 80.8007 88.4962 81.2433 88.1912 81.6671 87.8596 82.0695 87.5032 82.1798 87.3929 82.1952 87.2121 82.0818 87.1048 81.9806 86.9841 81.801 86.9681 81.6803 87.0693 81.6772 87.0717 81.6742 87.0745 81.6711 87.0772ZM79.0906 89.0662C79.0784 89.0662 78.444 89.5627 77.8218 89.9335 77.6891 90.0086 77.6426 90.1769 77.7176 90.3096 77.7195 90.3129 77.7216 90.3163 77.7238 90.3197 77.7912 90.4576 77.972 90.5005 78.1099 90.4177 78.7719 90.0316 79.4063 89.5474 79.4339 89.5229 79.5577 89.426 79.5822 89.2483 79.489 89.1214 79.3962 88.9963 79.2197 88.9703 79.0946 89.0631 79.0934 89.0641 79.0919 89.0653 79.0906 89.0662ZM76.3477 90.856C75.9276 91.1413 75.4896 91.3994 75.036 91.6283 74.8981 91.6957 74.843 91.8612 74.9104 92.0145 74.9778 92.1524 75.1464 92.2075 75.2965 92.1401 75.9708 91.8091 76.6358 91.3555 76.6603 91.3402 76.7915 91.252 76.8283 91.0751 76.7431 90.9418 76.6585 90.8091 76.4823 90.7702 76.3496 90.8548 76.3489 90.8554 76.3483 90.8557 76.3477 90.856ZM73.5068 92.4711C73.4945 92.4711 72.8172 92.8695 72.1399 93.1331 71.9897 93.1882 71.9192 93.3537 71.9744 93.507 72.0296 93.6602 72.1951 93.7276 72.3483 93.6725 72.8506 93.4763 73.3345 93.2363 73.7948 92.9553 73.9327 92.8879 73.9756 92.7071 73.8929 92.5692 73.8224 92.4282 73.6447 92.3883 73.5068 92.4711ZM70.9539 94.1383C70.9591 94.039 70.9113 93.9446 70.8282 93.89 70.6903 93.8073 70.6075 93.8502 70.3869 93.9452 69.9799 94.1273 69.5659 94.2931 69.1457 94.4417 69.0013 94.4843 68.9186 94.636 68.9612 94.7803 68.9633 94.7871 68.9655 94.7938 68.9679 94.8003 69.0105 94.9446 69.1622 95.0274 69.3066 94.9848 69.3133 94.9826 69.3201 94.9805 69.3265 94.978 69.8383 94.8125 70.3624 94.5796 70.6229 94.4662 70.678 94.4386 70.7485 94.411 70.7608 94.3988 70.6627 94.4417 70.58 94.4264 70.5125 94.3712 70.4353 94.3173 70.3884 94.2296 70.3869 94.1352 70.3869 94.2854 70.5125 94.411 70.6627 94.411 70.8129 94.4212 70.9431 94.3075 70.9532 94.1573 70.9535 94.1508 70.9539 94.1447 70.9539 94.1383ZM67.5061 95.0516C67.4907 95.0516 66.7614 95.355 66.0565 95.5327 65.9026 95.5775 65.8116 95.7359 65.8511 95.8913 65.8959 96.0451 66.0543 96.1362 66.2097 96.0966 66.9391 95.8913 67.6838 95.6001 67.7114 95.5848 67.8579 95.5263 67.9311 95.362 67.8769 95.214 67.8095 95.0638 67.644 94.9933 67.5061 95.0516ZM64.3893 96.0415C64.3893 96.0415 63.6292 96.2774 62.9152 96.4 62.7616 96.431 62.6583 96.5756 62.6792 96.731 62.7101 96.8843 62.8554 96.9866 63.0102 96.9639 63.5382 96.8747 64.0586 96.7457 64.567 96.5778 64.7105 96.5373 64.7938 96.3884 64.7534 96.245 64.7509 96.2364 64.7482 96.2278 64.7448 96.2192 64.708 96.069 64.5425 95.9863 64.3893 96.0415ZM61.2204 96.7862C61.2051 96.7862 60.4328 96.9793 59.7156 97.062 59.5654 97.0743 59.4551 97.2122 59.4674 97.3807 59.4796 97.5309 59.6175 97.6412 59.7861 97.629 60.5461 97.5462 61.3184 97.3531 61.343 97.3531 61.4977 97.3179 61.5961 97.1653 61.5636 97.0099 61.5284 96.8548 61.3764 96.7558 61.2204 96.7862ZM57.9902 97.3256C57.9779 97.3256 57.2056 97.4635 56.4854 97.4911 56.3349 97.4889 56.2111 97.6094 56.209 97.7601 56.209 97.7675 56.209 97.7749 56.2096 97.7822 56.2096 97.9477 56.3475 98.0733 56.5007 98.058 57.2577 98.0304 58.0576 97.8925 58.0883 97.8925 58.2415 97.8616 58.3439 97.7163 58.3212 97.5615 58.293 97.4062 58.1462 97.3014 57.9902 97.3256ZM54.7355 97.629C54.7355 97.629 53.9356 97.7117 53.246 97.6841 53.0959 97.6688 52.958 97.7945 52.958 97.96 52.9494 98.112 53.0658 98.2422 53.2182 98.2508 53.2234 98.2511 53.2286 98.2511 53.2338 98.2511 53.9662 98.2787 54.7661 98.1929 54.806 98.1929 54.9561 98.1806 55.0665 98.0427 55.0542 97.8742 55.0389 97.724 54.901 97.6167 54.7355 97.629ZM51.4961 97.7117C51.4838 97.7117 50.6962 97.7393 49.9791 97.6566 49.8136 97.6443 49.6757 97.7546 49.6603 97.9048 49.6481 98.0703 49.7584 98.2082 49.9086 98.2205 50.6686 98.3032 51.4808 98.2756 51.5084 98.2756 51.6573 98.2796 51.7811 98.1619 51.7851 98.013 51.7851 98.0035 51.7848 97.994 51.7842 97.9845 51.7882 97.8374 51.6717 97.7148 51.5246 97.7108 51.5151 97.7108 51.5056 97.7108 51.4961 97.7117ZM48.2261 97.5585C48.2261 97.5585 47.4262 97.5309 46.7244 97.393 46.5733 97.363 46.4265 97.4607 46.3961 97.6118 46.3952 97.6176 46.3943 97.6231 46.3934 97.629 46.3646 97.7819 46.4654 97.9293 46.6183 97.9581 46.622 97.9587 46.6257 97.9594 46.6294 97.96 47.3741 98.0979 48.174 98.1255 48.2169 98.1255 48.367 98.1408 48.505 98.0151 48.505 97.8496 48.5135 97.6976 48.3971 97.5674 48.2448 97.5588 48.2386 97.5585 48.2322 97.5585 48.2261 97.5585ZM44.9867 97.1877C44.9744 97.1877 44.2021 97.0896 43.485 96.9118 43.3287 96.8793 43.1751 96.9771 43.1387 97.1325 43.108 97.2885 43.2052 97.4408 43.3593 97.4788 44.0918 97.6566 44.8917 97.7546 44.9193 97.7546 45.0725 97.7822 45.2227 97.6566 45.238 97.5064 45.2576 97.3501 45.147 97.2076 44.9907 97.1883 44.9894 97.188 44.9879 97.1877 44.9867 97.1877ZM41.7718 96.5808C41.7718 96.5808 40.9873 96.4307 40.2977 96.2223 40.157 96.1686 39.9992 96.2394 39.9459 96.3801 39.9434 96.3869 39.941 96.3933 39.9391 96.4 39.8849 96.5389 39.9532 96.6952 40.0921 96.7494 40.1012 96.7531 40.1104 96.7561 40.1199 96.7586 40.8524 96.9946 41.637 97.1448 41.6768 97.1448 41.8279 97.1751 41.975 97.0773 42.0053 96.9265 42.0063 96.9216 42.0072 96.9167 42.0078 96.9118 42.0378 96.7607 41.9401 96.6139 41.789 96.5836 41.7832 96.5827 41.7776 96.5818 41.7718 96.5808ZM38.5999 95.7381C38.5999 95.7381 37.8275 95.545 37.1656 95.2845 37.0176 95.2284 36.8517 95.3023 36.7947 95.45 36.7384 95.5989 36.8122 95.7653 36.9602 95.8239 37.6621 96.0997 38.4344 96.2928 38.4773 96.305 38.6326 96.3375 38.7853 96.2391 38.8205 96.0844 38.853 95.9281 38.7552 95.7745 38.5999 95.7381ZM35.5106 94.7053C35.4984 94.7053 34.7659 94.457 34.1162 94.1383 33.963 94.0709 33.7975 94.126 33.73 94.2639 33.6626 94.4172 33.7147 94.5827 33.8557 94.6501 34.5453 94.9933 35.3022 95.2416 35.3298 95.2416 35.4708 95.2946 35.628 95.2235 35.6813 95.0825 35.6838 95.0755 35.6862 95.0681 35.6884 95.0608 35.7426 94.9238 35.6758 94.769 35.5388 94.7148 35.5296 94.7111 35.5201 94.7077 35.5106 94.7053ZM32.5042 93.4487C32.0362 93.2498 31.5799 93.0246 31.1373 92.7745 30.996 92.7028 30.8232 92.7506 30.7389 92.8848 30.6681 93.0273 30.7156 93.1999 30.8492 93.2863 31.5112 93.6571 32.2406 93.9759 32.2682 93.9881 32.4171 94.0424 32.5832 93.9765 32.6543 93.8349 32.7104 93.6865 32.6458 93.5201 32.5042 93.4487ZM29.5805 91.9899C29.5651 91.9899 28.8511 91.6314 28.2565 91.2299 28.1279 91.1361 27.9477 91.1643 27.854 91.293 27.7603 91.4214 27.7885 91.6016 27.9171 91.6954 27.9247 91.7009 27.9327 91.7061 27.9408 91.711 28.5752 92.1248 29.2924 92.4833 29.32 92.4956 29.4701 92.563 29.6387 92.5109 29.7061 92.373 29.7735 92.2228 29.7184 92.0574 29.5805 91.9899ZM26.7671 90.335C26.7671 90.3197 26.0775 89.9213 25.4983 89.4799 25.3715 89.3868 25.1938 89.4113 25.0968 89.5351 25.0031 89.6614 25.0291 89.8394 25.155 89.9335 25.7465 90.3871 26.4514 90.8039 26.479 90.8162 26.6169 90.8989 26.7977 90.8591 26.8651 90.7211 26.9479 90.5832 26.905 90.4024 26.7671 90.335ZM24.0793 88.4563C24.0793 88.4563 23.4173 88.015 22.878 87.5308 22.7676 87.4205 22.5899 87.4358 22.4795 87.5584 22.3692 87.6687 22.3815 87.8465 22.5071 87.9568 23.0588 88.4686 23.733 88.9099 23.7637 88.9344 23.8958 89.0221 24.0738 88.9865 24.1621 88.8547 24.2473 88.7214 24.2105 88.5446 24.0793 88.4563ZM21.5264 86.4153C21.5264 86.4153 20.892 85.9188 20.4078 85.41 20.2975 85.2997 20.1044 85.2844 19.9941 85.3947 19.8838 85.505 19.8684 85.6981 19.9818 85.8084 20.5059 86.3601 21.1525 86.8566 21.1832 86.8719 21.3058 86.97 21.4866 86.9393 21.5816 86.8167 21.6764 86.6905 21.6517 86.5115 21.5264 86.4153ZM19.1268 84.2117C19.1145 84.2117 18.5353 83.6723 18.0633 83.1238 17.9683 82.9981 17.7875 82.9858 17.6649 83.0962 17.548 83.1884 17.528 83.3579 17.6202 83.475 17.6256 83.4817 17.6313 83.4885 17.6373 83.4946 18.1216 84.0616 18.713 84.6132 18.7253 84.6408 18.8445 84.7474 19.0264 84.7422 19.139 84.6285 19.2478 84.509 19.2423 84.3248 19.1268 84.2117ZM16.6597 82.3208C16.7767 82.3269 16.8858 82.2614 16.9355 82.1553 17.0029 81.9898 16.9233 81.8795 16.7853 81.7263 16.4718 81.3885 16.1762 81.0346 15.8996 80.6659 15.8169 80.5402 15.6361 80.5157 15.4982 80.6107 15.3756 80.6935 15.348 80.8712 15.443 81.0122 15.7709 81.4658 16.1601 81.8948 16.3379 82.1155L16.436 82.2105C16.366 82.1302 16.3549 82.0143 16.4084 81.9224 16.4467 81.8194 16.5468 81.7526 16.6566 81.7569 16.5009 81.7603 16.3775 81.8893 16.3808 82.045 16.3808 82.045 16.3808 82.045 16.3808 82.045 16.3839 82.1952 16.5065 82.3208 16.6597 82.3208ZM14.8117 79.299C14.7964 79.299 14.2999 78.6922 13.9137 78.0731 13.8227 77.946 13.6494 77.9101 13.5153 77.9904 13.3869 78.0805 13.3507 78.2549 13.4326 78.3888 13.831 79.0232 14.3428 79.6453 14.3581 79.6729 14.4684 79.7955 14.6462 79.8108 14.7718 79.7128 14.8909 79.6064 14.9082 79.4262 14.8117 79.299ZM12.9085 76.6389C12.9085 76.6389 12.4549 75.9922 12.1086 75.3578 12.0243 75.2236 11.8515 75.1758 11.7102 75.2475 11.5759 75.3318 11.5281 75.5046 11.5999 75.6459 11.9738 76.2956 12.4273 76.9576 12.4396 76.9852 12.5377 77.1108 12.7154 77.1384 12.8533 77.0526 12.9773 76.9505 13.0014 76.77 12.9085 76.6389ZM11.2107 73.8684C11.2107 73.8531 10.7969 73.1788 10.5088 72.5169 10.4376 72.3753 10.2709 72.3106 10.1227 72.3667 9.98227 72.439 9.91785 72.6048 9.97252 72.7528 10.2913 73.4547 10.7019 74.1319 10.7326 74.1595 10.8076 74.2922 10.9759 74.3388 11.1085 74.2637 11.1119 74.2616 11.1153 74.2597 11.1187 74.2576 11.2536 74.1687 11.2965 73.991 11.2107 73.8684ZM9.70896 70.9569C9.70896 70.9447 9.33507 70.2398 9.08683 69.5625 9.03004 69.4138 8.8635 69.3394 8.71489 69.3964 8.71422 69.3964 8.71358 69.3967 8.71293 69.397 8.56552 69.4522 8.49074 69.6164 8.54591 69.7638 8.5464 69.7651 8.54692 69.7666 8.54744 69.7678 8.80794 70.4696 9.18183 71.1898 9.19409 71.2174 9.26862 71.3556 9.43862 71.4111 9.58024 71.3431 9.71962 71.2695 9.77638 71.0994 9.70896 70.9569ZM8.42485 67.9505C8.21452 67.4904 8.03934 67.0151 7.90079 66.5284 7.84562 66.3783 7.69545 66.2802 7.54222 66.3231 7.39205 66.3783 7.29398 66.5284 7.33382 66.6817 7.55448 67.4111 7.87321 68.1558 7.88546 68.1834 7.95672 68.325 8.12267 68.3909 8.27162 68.3366 8.41544 68.2673 8.48213 68.0994 8.42485 67.9505ZM7.33688 64.8612C7.33688 64.8612 7.06106 64.1165 6.91089 63.4116 6.86909 63.2602 6.7195 63.1649 6.56458 63.191 6.41312 63.2327 6.31784 63.3822 6.34392 63.5373 6.50942 64.282 6.78524 65.0267 6.7975 65.0696 6.85839 65.2155 7.0226 65.2882 7.17139 65.2351 7.31598 65.1732 7.38816 65.0099 7.33688 64.8612ZM6.46651 61.7169C6.32412 61.2339 6.2176 60.7414 6.14778 60.2427 6.13448 60.091 6.00071 59.9789 5.84894 59.992 5.84229 59.9927 5.83564 59.9936 5.82905 59.9945 5.67729 60.0077 5.56506 60.1416 5.57833 60.2933 5.57891 60.3 5.57974 60.3065 5.58081 60.3132 5.67582 61.0733 5.89954 61.8456 5.89954 61.8732 5.95471 62.0233 6.10488 62.1214 6.25811 62.0785 6.41135 62.0203 6.50942 61.8701 6.46651 61.7169ZM5.81986 58.5173C5.81986 58.5173 5.65437 57.7327 5.5992 57.0156 5.58618 56.8599 5.45164 56.7432 5.2958 56.752 5.14207 56.7615 5.02518 56.8939 5.03471 57.0478 5.03487 57.0502 5.03505 57.053 5.0353 57.0555 5.09046 57.8155 5.25595 58.6001 5.25595 58.643 5.28354 58.7931 5.43371 58.8912 5.5992 58.8636 5.74937 58.833 5.84744 58.6828 5.81986 58.5173ZM5.40613 55.2749C5.40613 55.2626 5.2958 54.475 5.2958 53.7732 5.2958 53.6175 5.16956 53.4912 5.01384 53.4912 4.85813 53.4912 4.73189 53.6175 4.73189 53.7732 4.73189 54.5179 4.84222 55.3178 4.84222 55.3454 4.85552 55.4971 4.9893 55.6092 5.14106 55.5961 5.14771 55.5954 5.15436 55.5945 5.16095 55.5936 5.31256 55.5786 5.42332 55.4437 5.40836 55.292 5.40781 55.2862 5.40704 55.2807 5.40613 55.2749ZM5.21305 52.0079C5.21305 52.0079 5.15788 51.2233 5.20079 50.5062 5.21305 50.3407 5.09046 50.2028 4.94029 50.2028 4.7748 50.1905 4.63689 50.3131 4.63689 50.4633 4.59398 51.2233 4.65221 52.0232 4.65221 52.0508 4.65221 52.201 4.79012 52.3266 4.95561 52.3113 5.10272 52.3113 5.22531 52.1734 5.21305 52.0079ZM5.24063 48.7654C5.24063 48.7532 5.24063 47.9809 5.35096 47.276 5.3783 47.1209 5.2748 46.9732 5.11976 46.9459 5.11817 46.9456 5.11657 46.9453 5.11498 46.945 4.96 46.9174 4.812 47.0207 4.78439 47.1755 4.78427 47.1764 4.78411 47.177 4.78399 47.1779 4.67366 47.938 4.67366 48.7379 4.67366 48.7654 4.67366 48.9187 4.79931 49.0413 4.94948 49.0413 5.11498 49.0413 5.24063 48.9187 5.24063 48.7654ZM5.50113 45.523C5.50113 45.523 5.56855 44.7384 5.72179 44.0366 5.74937 43.8711 5.65437 43.7179 5.50113 43.6903 5.33564 43.6627 5.1824 43.7577 5.15482 43.911 5.00465 44.6557 4.93416 45.4433 4.93416 45.4832 4.9219 45.6385 5.03781 45.7743 5.19304 45.7866 5.19359 45.7866 5.19411 45.7866 5.19466 45.7866 5.34603 45.8037 5.48256 45.6946 5.4996 45.5432 5.50036 45.5365 5.50089 45.5297 5.50113 45.523ZM5.99761 42.2989C5.99761 42.2989 6.10794 41.4991 6.31634 40.8095 6.35925 40.6593 6.26118 40.5061 6.111 40.4509 5.96083 40.4111 5.8076 40.5061 5.75244 40.6593 5.61057 41.1754 5.50407 41.7007 5.43371 42.2315 5.40943 42.382 5.51167 42.5236 5.66206 42.5478 5.66865 42.5487 5.6753 42.5496 5.68195 42.5502 5.83261 42.5726 5.97297 42.4687 5.99544 42.3182 5.99639 42.3118 5.99712 42.3054 5.99761 42.2989ZM6.71475 39.1117C6.71475 39.1117 6.89557 38.3394 7.12848 37.6375 7.18365 37.4874 7.1009 37.3341 6.94767 37.279 6.7975 37.2207 6.64426 37.3066 6.5891 37.4567 6.34086 38.1739 6.16004 38.9615 6.14778 38.9891 6.1217 39.1441 6.21698 39.2937 6.36844 39.3354 6.52428 39.3611 6.67423 39.2643 6.71475 39.1117ZM7.64029 35.9826C7.65255 35.9826 7.87627 35.2103 8.17968 34.5483 8.23539 34.3994 8.16913 34.2324 8.02644 34.1622 7.87826 34.1076 7.71258 34.172 7.64029 34.3123 7.42643 34.8048 7.24721 35.3117 7.10397 35.8294 7.0488 35.9795 7.14687 36.1328 7.29704 36.1726 7.44721 36.2308 7.59738 36.1328 7.64029 35.9826ZM8.79874 32.9332C8.79874 32.921 9.08683 32.1609 9.41781 31.5265 9.48524 31.3886 9.43007 31.2078 9.29216 31.1404 9.15425 31.073 8.97343 31.1281 8.90601 31.266 8.56276 31.928 8.27468 32.7003 8.25936 32.7279 8.20199 32.8744 8.27428 33.0399 8.42087 33.0972 8.42218 33.0978 8.42353 33.0981 8.42485 33.0987 8.57809 33.1539 8.74358 33.0865 8.79874 32.9332ZM10.1503 29.9543C10.1656 29.9543 10.4966 29.2249 10.8674 28.6028 10.9481 28.4736 10.9088 28.3035 10.7796 28.2228 10.7762 28.2206 10.7728 28.2186 10.7693 28.2167 10.6401 28.136 10.47 28.1753 10.3893 28.3045 10.3872 28.3079 10.3852 28.3113 10.3832 28.3147 9.98478 28.9491 9.65379 29.6938 9.63847 29.7214 9.57105 29.8593 9.62621 30.0371 9.77638 30.0923 9.91429 30.1627 10.0951 30.1076 10.1503 29.9543ZM11.7347 27.0858C11.7347 27.0858 12.1086 26.384 12.5224 25.8047 12.6174 25.6668 12.5898 25.486 12.4672 25.4033 12.3293 25.3083 12.1485 25.3358 12.0688 25.4615 11.7558 25.8955 11.4742 26.3513 11.226 26.8253 11.1555 26.9632 11.2107 27.141 11.3486 27.2114 11.4865 27.2819 11.6673 27.2237 11.7347 27.0858ZM13.4877 24.3276C13.4877 24.3276 13.9137 23.6503 14.3704 23.1017 14.4741 22.9901 14.4677 22.8156 14.3562 22.7119 14.3518 22.7078 14.3474 22.7039 14.3428 22.7002 14.2249 22.5933 14.0427 22.6022 13.9359 22.72 13.9336 22.7225 13.9313 22.7252 13.929 22.7278 13.5909 23.1433 13.2817 23.5816 13.0035 24.0395 12.9228 24.1687 12.9621 24.3388 13.0913 24.4195 13.0947 24.4216 13.0981 24.4237 13.1016 24.4256 13.2242 24.5084 13.405 24.4655 13.4877 24.3276ZM15.4307 21.7072C15.4461 21.695 15.915 21.0729 16.4084 20.5488 16.5229 20.4432 16.5301 20.2649 16.4246 20.1504 16.319 20.0359 16.1407 20.0286 16.0262 20.1342 16.0206 20.1393 16.0152 20.1447 16.01 20.1504 15.4706 20.702 14.9894 21.3364 14.9741 21.364 14.88 21.4911 14.906 21.6703 15.0323 21.7655 15.1549 21.8605 15.3357 21.8329 15.4307 21.7072ZM17.5576 19.2248C17.5699 19.2248 18.0817 18.6334 18.618 18.1369 18.7406 18.0265 18.7559 17.8457 18.6456 17.7354 18.5353 17.6128 18.3545 17.5975 18.2441 17.7078 17.6649 18.2196 17.1408 18.8234 17.1286 18.854 17.0183 18.9797 17.0305 19.1574 17.1562 19.2524 17.2788 19.3628 17.4596 19.3505 17.5576 19.2248ZM19.8562 16.911C19.8715 16.911 20.4231 16.344 20.987 15.8905 21.1127 15.7924 21.1403 15.6146 21.0422 15.489 20.9441 15.3633 20.7664 15.3388 20.6438 15.4338 20.2253 15.7648 19.83 16.1242 19.4608 16.5095 19.3506 16.6206 19.3506 16.7999 19.4608 16.911 19.5705 17.0189 19.7465 17.0189 19.8562 16.911ZM22.3141 14.7443C22.3263 14.7443 22.9209 14.2202 23.5154 13.8065 23.647 13.717 23.6837 13.5392 23.5982 13.405 23.5099 13.2738 23.333 13.237 23.1998 13.3222 22.5654 13.7636 21.9739 14.2876 21.9432 14.3152 21.8176 14.4255 21.8022 14.6063 21.9126 14.7167 22.026 14.8393 22.2037 14.8546 22.3141 14.7443ZM24.9068 12.7583C24.919 12.7583 25.5534 12.2741 26.1756 11.9155 26.3099 11.8313 26.3577 11.6585 26.2859 11.5171 26.2014 11.3811 26.0265 11.3331 25.8844 11.4068 25.4242 11.6756 24.9829 11.9757 24.5635 12.3048 24.4376 12.3988 24.4116 12.577 24.5053 12.7032 24.6034 12.8288 24.7811 12.8533 24.9068 12.7583ZM27.6374 10.9655C27.6374 10.9655 28.2994 10.5211 28.9614 10.2054 29.0993 10.138 29.1545 9.97252 29.084 9.81929 29.0165 9.68138 28.8511 9.62928 28.6978 9.6967 28.0236 10.0277 27.3463 10.469 27.3187 10.4813 27.1808 10.564 27.1532 10.7448 27.236 10.8827 27.3187 11.0206 27.4995 11.0452 27.6374 10.9655ZM30.4907 9.36571C30.4907 9.35345 31.1802 8.9673 31.8422 8.70374 31.989 8.64407 32.0622 8.4787 32.0077 8.32985 31.9479 8.18295 31.7827 8.10974 31.6338 8.16435 30.932 8.44017 30.2271 8.84165 30.1995 8.85697 30.0663 8.9422 30.0199 9.11481 30.0923 9.25538 30.1765 9.38968 30.3493 9.43752 30.4907 9.36571ZM33.442 7.95902C33.442 7.95902 34.1591 7.61577 34.8487 7.39205 34.9924 7.35319 35.0776 7.20513 35.0387 7.06134 35.0362 7.0519 35.0332 7.04258 35.0295 7.03348 34.9863 6.88745 34.8327 6.80418 34.6865 6.84748 34.6813 6.84904 34.6761 6.85079 34.6709 6.85266 33.9415 7.07332 33.2244 7.43189 33.1815 7.44415 33.042 7.51761 32.9862 7.6888 33.0558 7.8303 33.1263 7.97434 33.2918 8.02644 33.442 7.95902ZM36.476 6.77298C36.4883 6.77298 37.2361 6.46957 37.9256 6.30408 38.0804 6.26896 38.1788 6.11628 38.1463 5.96083 38.1098 5.80558 37.9563 5.70769 37.8 5.74018 37.0552 5.92099 36.2983 6.2244 36.2707 6.23666 36.1227 6.29507 36.0488 6.46164 36.1052 6.61055 36.1646 6.75585 36.3289 6.82768 36.476 6.77298ZM39.6081 5.79534C39.6081 5.79534 40.3682 5.55936 41.07 5.42145 41.2242 5.39843 41.3302 5.25494 41.3072 5.10091 41.3069 5.09846 41.3063 5.09598 41.306 5.09353 41.2833 4.93946 41.1399 4.833 40.986 4.85571 40.9823 4.85626 40.9787 4.85687 40.975 4.85754 40.4525 4.95874 39.9367 5.09181 39.4304 5.25595 39.2842 5.29929 39.2011 5.4528 39.2444 5.59883 39.2459 5.6041 39.2477 5.60934 39.2496 5.61452 39.2928 5.76056 39.4463 5.84382 39.5925 5.80052 39.5977 5.79896 39.6029 5.79721 39.6081 5.79534ZM42.7801 5.04755C42.7924 5.04755 43.5647 4.85448 44.2818 4.77173 44.435 4.75641 44.5454 4.6185 44.53 4.453 44.5178 4.29977 44.3768 4.18944 44.2113 4.20476 43.4513 4.28751 42.679 4.48059 42.6514 4.48059 42.4975 4.51712 42.4001 4.6687 42.4307 4.82383 42.4687 4.97979 42.6226 5.07832 42.7801 5.04755ZM46.0072 4.51123C46.0225 4.51123 46.7949 4.37332 47.5089 4.34574 47.6579 4.3496 47.7817 4.23204 47.7857 4.08313 47.7857 4.07359 47.7854 4.06409 47.7847 4.05459 47.7847 3.8891 47.6468 3.76345 47.4967 3.77877 46.7366 3.80635 45.9367 3.94426 45.9092 3.94426 45.7547 3.97378 45.6508 4.1196 45.6732 4.27525 45.7038 4.42849 45.854 4.53882 46.0072 4.51123ZM49.2619 4.20783C49.2619 4.20783 50.0618 4.12508 50.779 4.1404 50.9294 4.14889 51.0582 4.03381 51.0667 3.88343 51.067 3.87715 51.067 3.87086 51.067 3.86458 51.0824 3.69909 50.9444 3.5765 50.7912 3.5765 50.0312 3.56118 49.2313 3.64392 49.1914 3.64392 49.0413 3.65618 48.9309 3.79409 48.9432 3.96265 48.9585 4.10976 49.0964 4.22009 49.2619 4.20783ZM52.5289 4.12508C52.5412 4.12508 53.3288 4.0975 54.0183 4.16799 54.1737 4.18025 54.3095 4.06434 54.3217 3.90911 54.3217 3.90856 54.3217 3.90804 54.3217 3.90749 54.334 3.75223 54.2178 3.61656 54.0628 3.60439 54.0612 3.60427 54.0597 3.60418 54.0582 3.60408 53.341 3.53666 52.5412 3.56118 52.5136 3.56118 52.3646 3.55732 52.2408 3.67488 52.2368 3.82379 52.2368 3.83332 52.2371 3.84282 52.2378 3.85232 52.2408 4.01475 52.3787 4.1404 52.5289 4.12508ZM55.7713 4.27832C55.7713 4.27832 56.5559 4.3059 57.2761 4.42849 57.4318 4.45095 57.5777 4.347 57.6071 4.1925 57.6279 4.03722 57.5247 3.89244 57.3711 3.86152 56.8455 3.77908 56.3153 3.72894 55.7836 3.71135 55.6334 3.69602 55.4955 3.82168 55.4955 3.98717 55.4854 4.13746 55.5988 4.26756 55.7493 4.27773 55.7566 4.27822 55.764 4.27841 55.7713 4.27832ZM58.9985 4.64914C59.0107 4.64914 59.8137 4.73189 60.5155 4.91271 60.6709 4.94504 60.8235 4.84688 60.8587 4.69205 60.8912 4.53661 60.7929 4.38393 60.6381 4.3488 60.1205 4.22634 59.5952 4.13829 59.0659 4.08524 58.9004 4.07298 58.7625 4.18331 58.7472 4.33348 58.7309 4.4896 58.8428 4.62996 58.9985 4.64914ZM62.2256 5.25595C62.2409 5.25595 63.0132 5.39387 63.6875 5.61452 63.8284 5.66763 63.9857 5.59641 64.039 5.45544 64.0414 5.4483 64.0439 5.44106 64.046 5.43371 64.1006 5.29515 64.0325 5.13852 63.894 5.08384 63.8857 5.0805 63.8772 5.07762 63.8683 5.07514 63.3644 4.90615 62.8477 4.77703 62.3237 4.68899 62.1692 4.66484 62.0239 4.76818 61.9957 4.9219 61.962 5.07514 62.0724 5.22837 62.2256 5.25595ZM64.8735 3.60102C64.8858 3.60102 65.6887 3.78184 66.4028 4.04233 66.556 4.0975 66.7215 4.03008 66.7767 3.87684 66.834 3.73026 66.7617 3.56492 66.6152 3.50755 66.6139 3.50702 66.6124 3.5065 66.6112 3.50601 65.8511 3.23019 65.0237 3.05244 64.9961 3.03711 64.8416 3.00972 64.6921 3.10586 64.6528 3.25777 64.6271 3.41196 64.7224 3.56053 64.8735 3.60102ZM68.1558 4.62156C68.1558 4.62156 68.9557 4.84222 69.6452 5.16095 69.7831 5.22837 69.964 5.17321 70.0191 5.02304 70.0865 4.88513 70.0314 4.70431 69.8812 4.64914 69.1488 4.3059 68.3489 4.07298 68.309 4.05766 68.1589 4.01475 68.0056 4.11282 67.9505 4.26299 67.9075 4.41316 68.0025 4.5664 68.1558 4.62156ZM71.34 5.84744C71.3523 5.84744 72.1123 6.15085 72.7896 6.50942 72.9266 6.58327 73.0976 6.53203 73.1715 6.39492 73.173 6.39225 73.1745 6.38955 73.1758 6.38683 73.2481 6.24708 73.1935 6.07506 73.0538 6.00261 73.0526 6.00196 73.0513 6.00132 73.0501 6.00068 72.3605 5.62678 71.5729 5.32338 71.5453 5.31112 71.3952 5.25595 71.2266 5.32338 71.1745 5.47661 71.1172 5.6232 71.1895 5.78854 71.336 5.84591 71.3372 5.84643 71.3388 5.84695 71.34 5.84744ZM74.4445 7.29704C74.4445 7.3093 75.2015 7.65561 75.8359 8.06935 75.9708 8.15157 76.1461 8.11541 76.2374 7.9866 76.3177 7.85249 76.2818 7.67924 76.1546 7.58819 75.6808 7.29018 75.1887 7.023 74.6805 6.7883 74.5426 6.72088 74.3618 6.77604 74.3097 6.92621 74.2395 7.05174 74.2843 7.2105 74.4096 7.28077 74.4209 7.28705 74.4326 7.29248 74.4445 7.29704ZM77.4234 8.97956C77.4388 8.97956 78.1682 9.38104 78.7627 9.83461 78.8896 9.92766 79.0673 9.90323 79.1642 9.77945 79.258 9.6533 79.2319 9.47506 79.1059 9.38104 78.4715 8.89681 77.7422 8.4984 77.7146 8.47082 77.5721 8.40015 77.3995 8.44762 77.3131 8.58115 77.2414 8.72249 77.2892 8.89528 77.4234 8.97956ZM80.292 10.8552C80.292 10.8552 80.9938 11.3241 81.573 11.8083 81.7005 11.9056 81.882 11.8868 81.9868 11.7654 82.0848 11.6386 82.0674 11.4574 81.9469 11.3516 81.3248 10.8552 80.6383 10.3985 80.6077 10.3709 80.4746 10.284 80.2966 10.321 80.2092 10.4537 80.1219 10.5875 80.159 10.7667 80.292 10.8552ZM83.0073 12.9238C83.0226 12.9361 83.6846 13.4356 84.2363 13.9566 84.3417 14.0711 84.52 14.0784 84.6347 13.9728 84.7493 13.8673 84.7563 13.6889 84.6509 13.5744 84.6457 13.5688 84.6402 13.5634 84.6347 13.5582 84.2323 13.1675 83.8044 12.804 83.3536 12.4702 83.2283 12.3758 83.0502 12.4005 82.9552 12.5254 82.8602 12.65 82.8835 12.8279 83.0073 12.9238ZM85.5878 15.1856C85.5878 15.1978 86.2222 15.7372 86.734 16.3011 86.8262 16.418 86.9957 16.4381 87.1128 16.3458 87.1195 16.3404 87.1263 16.3347 87.1324 16.3287 87.2495 16.2365 87.2694 16.0669 87.1771 15.9499 87.1716 15.9431 87.1661 15.9365 87.16 15.9303 86.7904 15.5088 86.3886 15.1163 85.9586 14.7565 85.833 14.6462 85.6552 14.6584 85.5602 14.7841 85.4499 14.9097 85.4621 15.0875 85.5878 15.1856ZM87.9997 17.6128C87.9997 17.6251 88.5912 18.2196 89.0601 18.8111 89.1581 18.9368 89.3359 18.9613 89.4616 18.8663 89.5872 18.7713 89.6117 18.5904 89.5167 18.4679 89.0356 17.8335 88.4288 17.2389 88.4012 17.2113 88.2911 17.1014 88.1128 17.1014 88.0028 17.2113 87.8912 17.3198 87.8885 17.4983 87.9969 17.61 87.9979 17.611 87.9988 17.6119 87.9997 17.6128ZM90.2339 20.2055C90.2339 20.2178 90.7855 20.8522 91.2115 21.4743 91.3096 21.6122 91.4873 21.6398 91.613 21.5571 91.7441 21.4688 91.7809 21.2919 91.6957 21.1587 91.3736 20.7004 91.0291 20.2585 90.6629 19.8347 90.5691 19.7169 90.3975 19.6974 90.2795 19.7913 90.2734 19.7963 90.2673 19.8016 90.2614 19.8071 90.1444 19.9019 90.1263 20.0736 90.221 20.1907 90.225 20.1958 90.2293 20.2008 90.2339 20.2055ZM92.2903 22.9484C92.2903 22.9607 92.7868 23.6257 93.1606 24.2877 93.2449 24.422 93.4178 24.4699 93.5591 24.398 93.6951 24.3136 93.7432 24.1387 93.6694 23.9966 93.389 23.5154 93.081 23.0509 92.7469 22.6052 92.6488 22.4795 92.4711 22.452 92.3485 22.55 92.2259 22.6481 92.1922 22.8259 92.2903 22.9484ZM94.1383 25.8323C94.1383 25.8323 94.6072 26.5341 94.9382 27.2268 95.0056 27.3616 95.1711 27.4168 95.3243 27.3494 95.4622 27.2819 95.5174 27.1134 95.45 26.9632 95.1037 26.2614 94.6348 25.5442 94.6194 25.5136 94.5398 25.3757 94.3589 25.3481 94.221 25.4309 94.0831 25.5136 94.0525 25.6944 94.1383 25.8323ZM95.7932 28.8388C95.8055 28.8388 96.207 29.5713 96.4828 30.2731 96.5395 30.4217 96.7062 30.4961 96.8548 30.4393 96.8554 30.4391 96.8561 30.4388 96.8567 30.4386 97.0041 30.3834 97.0789 30.2191 97.0237 30.0717 97.0231 30.0704 97.0228 30.0691 97.0222 30.0677 96.731 29.323 96.3204 28.5936 96.305 28.5507 96.2207 28.4164 96.0479 28.3686 95.9066 28.4404 95.7699 28.5227 95.7203 28.6968 95.7932 28.8388ZM97.2275 31.9556C97.2275 31.9556 97.5861 32.7156 97.819 33.4297 97.8622 33.5759 98.0157 33.6589 98.1619 33.6157 98.1671 33.6142 98.1723 33.6124 98.1776 33.6105 98.3225 33.5695 98.4065 33.4187 98.3654 33.2737 98.3636 33.2664 98.3611 33.259 98.3584 33.252 98.1255 32.495 97.7516 31.7349 97.7393 31.6951 97.6657 31.5556 97.4947 31.4999 97.3531 31.5694 97.2122 31.6369 97.157 31.8024 97.2275 31.9556ZM98.4411 35.1551C98.4411 35.1705 98.7445 35.9428 98.9223 36.6722 98.9646 36.8278 99.1252 36.9198 99.2808 36.8775 99.4365 36.8352 99.5285 36.6746 99.4862 36.5189 99.3461 35.9854 99.1754 35.4604 98.9744 34.9467 98.9192 34.7935 98.7537 34.7261 98.6005 34.7812 98.4534 34.8364 98.386 35.0019 98.4411 35.1551ZM99.4341 38.4374C99.4341 38.4374 99.6701 39.2373 99.808 39.982 99.8322 40.1359 99.9768 40.2407 100.131 40.2165 100.133 40.2159 100.136 40.2156 100.139 40.2149 100.292 40.1855 100.396 40.0415 100.375 39.887 100.274 39.3369 100.14 38.7935 99.9735 38.2597 99.9345 38.1159 99.7865 38.0307 99.6428 38.0697 99.6333 38.0721 99.6241 38.0752 99.6149 38.0789 99.4712 38.1178 99.386 38.2658 99.4249 38.4095 99.4273 38.419 99.4304 38.4282 99.4341 38.4374ZM100.179 41.7596C100.179 41.7718 100.372 42.587 100.455 43.344 100.467 43.4972 100.605 43.6076 100.773 43.5922 100.924 43.58 101.034 43.4421 101.022 43.2735 100.939 42.489 100.746 41.6615 100.746 41.6339 100.707 41.4819 100.557 41.386 100.403 41.4132 100.25 41.4537 100.153 41.6036 100.179 41.7596ZM100.703 45.1522C100.703 45.1522 100.841 45.9796 100.868 46.7397 100.868 46.9052 101.006 47.0278 101.156 47.0155 101.307 47.0177 101.431 46.8972 101.433 46.7464 101.433 46.7391 101.433 46.7317 101.432 46.7244 101.405 45.9245 101.264 45.097 101.264 45.0572 101.236 44.903 101.091 44.7988 100.936 44.8212 100.783 44.8521 100.68 44.9974 100.703 45.1522ZM100.991 48.5754C100.991 48.5754 101.074 49.3753 101.046 50.1323 101.038 50.2828 101.153 50.4115 101.303 50.4201 101.309 50.4204 101.315 50.4204 101.322 50.4204 101.472 50.4357 101.61 50.3101 101.61 50.1446 101.638 49.36 101.555 48.5448 101.555 48.505 101.543 48.3517 101.405 48.2414 101.236 48.2567 101.089 48.269 100.979 48.4069 100.991 48.5754ZM101.046 51.9527C101.046 51.9527 101.058 52.7802 100.979 53.5372 100.966 53.7027 101.077 53.8406 101.227 53.8559 101.392 53.8682 101.53 53.7578 101.546 53.6077 101.628 52.8078 101.613 51.9803 101.613 51.9405 101.613 51.7903 101.487 51.6493 101.325 51.6647 101.176 51.6591 101.051 51.7756 101.046 51.9242 101.045 51.9337 101.045 51.9432 101.046 51.9527ZM100.853 55.3729C100.853 55.3729 100.81 56.2127 100.66 56.9451 100.632 57.1106 100.727 57.2639 100.881 57.2884 101.046 57.316 101.196 57.2209 101.224 57.0677 101.374 56.2831 101.417 55.4281 101.417 55.4005 101.434 55.2491 101.325 55.1127 101.174 55.0959 101.163 55.0947 101.152 55.094 101.141 55.094 100.989 55.0873 100.86 55.205 100.853 55.3573 100.853 55.3625 100.853 55.3677 100.853 55.3729ZM100.412 58.7656C100.412 58.7778 100.317 59.593 100.124 60.3255 100.081 60.4806 100.172 60.6408 100.327 60.6834 100.328 60.6838 100.328 60.6838 100.329 60.6841 100.484 60.7236 100.643 60.6326 100.688 60.4787 100.881 59.7064 100.976 58.8636 100.976 58.836 100.988 58.6705 100.881 58.5326 100.727 58.5173 100.573 58.4977 100.432 58.6071 100.412 58.7616 100.412 58.7628 100.412 58.7643 100.412 58.7656ZM99.7497 62.1183C99.7497 62.1306 99.5843 62.9581 99.3513 63.6752 99.2983 63.8162 99.3694 63.9734 99.5104 64.0267 99.5174 64.0292 99.5248 64.0316 99.5322 64.0338 99.6707 64.0883 99.8273 64.0203 99.8821 63.8818 99.8852 63.8735 99.8883 63.8649 99.8907 63.856 100.139 63.096 100.304 62.2685 100.32 62.2409 100.347 62.0754 100.249 61.9222 100.099 61.8977 99.9306 61.8701 99.7773 61.9651 99.7497 62.1183ZM98.8395 65.4282C98.8395 65.4405 98.6189 66.2557 98.343 66.9452 98.2867 67.0942 98.3605 67.2606 98.5085 67.3191 98.6566 67.3734 98.8208 67.3001 98.8794 67.1536 99.1705 66.4365 99.3912 65.609 99.4034 65.5814 99.443 65.4261 99.352 65.2676 99.1981 65.2229 99.0427 65.1833 98.8843 65.2744 98.8395 65.4282ZM97.724 68.6676C97.724 68.6676 97.4482 69.4522 97.1172 70.1294 97.0497 70.2827 97.1049 70.4482 97.2428 70.5156 97.393 70.583 97.5615 70.5279 97.629 70.39 97.9722 69.6728 98.248 68.8852 98.2634 68.8453 98.3185 68.6952 98.2358 68.5419 98.0826 68.4868 97.9293 68.4316 97.7791 68.5144 97.724 68.6676ZM96.3724 71.812C96.3724 71.8273 96.0415 72.5843 95.6706 73.234 95.5879 73.3719 95.6277 73.5527 95.7687 73.6201 95.9066 73.7029 96.0874 73.66 96.1549 73.5221 96.5686 72.8478 96.8996 72.0755 96.9118 72.048 96.9664 71.8999 96.902 71.7341 96.7617 71.6618 96.6127 71.6039 96.4439 71.6688 96.3724 71.812ZM94.8003 74.8583C94.8003 74.8705 94.4141 75.603 93.9881 76.2374 93.9029 76.3707 93.9397 76.5475 94.0709 76.6358 94.2042 76.721 94.381 76.6842 94.4693 76.5531 94.9106 75.9064 95.2967 75.1464 95.3121 75.1188 95.3795 74.9809 95.3243 74.8 95.1864 74.7326 95.0485 74.6652 94.8677 74.7204 94.8003 74.8583ZM93.035 77.782C93.0227 77.782 92.5937 78.4991 92.1248 79.1059 92.0298 79.2285 92.0574 79.4093 92.1799 79.5044 92.3025 79.5994 92.4833 79.5718 92.5784 79.4492 93.0626 78.8271 93.5039 78.0977 93.5162 78.0701 93.5977 77.9414 93.5591 77.771 93.4303 77.6894 93.4273 77.6876 93.4242 77.6858 93.4211 77.6839 93.2918 77.6033 93.1217 77.6426 93.0411 77.7719 93.039 77.7753 93.0368 77.7786 93.035 77.782ZM91.0491 80.5831C91.0491 80.5831 90.5802 81.2727 90.0561 81.8243 89.951 81.9442 89.9562 82.1247 90.0684 82.2381 90.1882 82.3441 90.3702 82.3374 90.4821 82.2227 91.0184 81.6313 91.5026 80.9264 91.5302 80.8988 91.6157 80.7646 91.579 80.5868 91.4475 80.4973 91.3132 80.4143 91.1373 80.4523 91.0491 80.5831ZM88.8823 83.231C88.8823 83.2433 88.3583 83.893 87.8066 84.4017 87.6963 84.5121 87.681 84.7082 87.7913 84.8155 87.9016 84.9258 88.0978 84.9411 88.205 84.8277 88.772 84.2761 89.3083 83.6264 89.3359 83.6019 89.4334 83.4744 89.4144 83.2929 89.293 83.1881 89.1664 83.0913 88.9862 83.11 88.8823 83.231ZM86.5378 85.7257C86.5378 85.738 85.9709 86.3478 85.3794 86.8167 85.258 86.9215 85.239 87.103 85.3365 87.2305 85.4413 87.3518 85.6227 87.3708 85.7502 87.2734 86.357 86.7616 86.9362 86.1547 86.9638 86.1272 87.0699 86.0073 87.0631 85.8253 86.9485 85.7134 86.8299 85.6086 86.65 85.6138 86.5378 85.7257ZM84.0156 88.0579C84.0156 88.0702 83.421 88.6372 82.802 89.0662 82.6708 89.1545 82.634 89.3313 82.7192 89.4646 82.8173 89.6025 82.995 89.6301 83.1176 89.5474 83.7796 89.0785 84.3864 88.4992 84.414 88.4839 84.5243 88.3736 84.5396 88.1805 84.4263 88.0702 84.3129 87.9599 84.1259 87.9476 84.0156 88.0579ZM81.3524 90.194C81.3524 90.2063 80.7057 90.7334 80.056 91.1318 79.9288 91.2228 79.893 91.396 79.9733 91.5302 80.0634 91.6586 80.2377 91.6948 80.3717 91.613 81.0336 91.1992 81.6956 90.6599 81.7232 90.6507 81.8436 90.5449 81.8611 90.3638 81.763 90.2369 81.6601 90.1143 81.4786 90.0953 81.3524 90.194ZM78.5543 92.1524C78.1145 92.4521 77.6594 92.7282 77.1905 92.9798 77.0526 93.0472 76.9974 93.2281 77.0649 93.366 77.1323 93.5039 77.3131 93.5591 77.451 93.4916 78.1528 93.1331 78.8454 92.6519 78.873 92.6366 79.0042 92.5483 79.041 92.3715 78.9558 92.2382 78.8672 92.1055 78.6891 92.0675 78.5543 92.1524ZM75.603 93.9054C75.5877 93.9054 74.8705 94.3344 74.181 94.6378 74.0406 94.7102 73.9763 94.876 74.0308 95.024 74.1031 95.1643 74.2689 95.2287 74.417 95.1741 74.9251 94.9452 75.4176 94.6832 75.8911 94.3896 76.0238 94.3145 76.0704 94.1463 75.9953 94.0135 75.9934 94.0102 75.9913 94.0068 75.9892 94.0034 75.9165 93.8713 75.7507 93.8235 75.6186 93.8962 75.6134 93.8989 75.6082 93.902 75.603 93.9054ZM72.5414 95.45C72.526 95.45 71.7966 95.8361 71.0795 96.0844 70.9349 96.1463 70.8628 96.3096 70.914 96.4583 70.975 96.6038 71.139 96.6768 71.2879 96.6237 72.0204 96.3633 72.7774 95.9771 72.8049 95.9618 72.9428 95.8944 72.998 95.7135 72.9306 95.5756 72.8632 95.4377 72.6793 95.3795 72.5414 95.45ZM69.3817 96.7739C69.3817 96.7862 68.6094 97.1018 67.88 97.298 67.7258 97.3427 67.6342 97.5006 67.6716 97.6566 67.7188 97.8086 67.8748 97.8993 68.0301 97.865 68.8024 97.6443 69.5747 97.3256 69.6176 97.3102 69.7586 97.2401 69.8236 97.0746 69.7678 96.9272 69.6976 96.7843 69.5306 96.7181 69.3817 96.7739ZM66.1423 97.8772C66.127 97.8772 65.3424 98.153 64.5977 98.3063 64.4463 98.3479 64.351 98.4975 64.377 98.6526 64.4187 98.8027 64.5664 98.8978 64.7203 98.8732 65.2618 98.7525 65.7957 98.6011 66.32 98.4197 66.4702 98.3645 66.556 98.2143 66.5008 98.0611 66.4457 97.9048 66.2924 97.8221 66.1423 97.8772ZM62.8324 98.7445C62.8324 98.7568 62.0172 98.9652 61.2725 99.0755 61.107 99.1031 60.9967 99.241 61.0242 99.3942 61.0374 99.5459 61.1713 99.6581 61.323 99.6449 61.3298 99.6443 61.3362 99.6434 61.343 99.6425 62.1306 99.5322 62.9427 99.3115 62.9856 99.3115 63.1395 99.2667 63.2305 99.1083 63.191 98.9529 63.1462 98.7988 62.9884 98.7071 62.8324 98.7445ZM59.452 99.3942C59.452 99.3942 58.6368 99.5597 57.8799 99.5996 57.7297 99.5996 57.604 99.7375 57.6194 99.903 57.6194 100.056 57.7573 100.179 57.9228 100.163 58.7073 100.124 59.5348 99.9581 59.5777 99.9581 59.7309 99.9306 59.8259 99.7773 59.7984 99.6149 59.7708 99.4617 59.6175 99.3667 59.452 99.3942ZM56.0594 99.7926C56.0472 99.7926 55.232 99.903 54.475 99.8876 54.323 99.8791 54.1927 99.9955 54.1841 100.148 54.1838 100.153 54.1838 100.158 54.1838 100.163 54.1753 100.315 54.2917 100.446 54.444 100.454 54.4492 100.455 54.4544 100.455 54.4597 100.455 55.2595 100.467 56.0993 100.372 56.1269 100.36 56.2786 100.346 56.3907 100.213 56.3775 100.061 56.3769 100.054 56.376 100.048 56.3751 100.041 56.3656 99.8923 56.2372 99.7795 56.0885 99.7893 56.0787 99.7899 56.0689 99.7908 56.0594 99.7926ZM52.6699 99.9581C52.6699 99.9581 51.8271 100.013 51.0701 99.9459 50.9147 99.9336 50.779 100.049 50.7667 100.205 50.7667 100.205 50.7667 100.206 50.7667 100.206 50.7514 100.358 50.8617 100.493 51.0131 100.509 51.0177 100.509 51.0226 100.509 51.0272 100.51 51.8271 100.577 52.6699 100.522 52.7097 100.522 52.8599 100.522 52.9855 100.384 52.9702 100.219 52.9702 100.068 52.8323 99.9459 52.6699 99.9581ZM49.2466 99.8907C48.7112 99.8806 48.177 99.8386 47.6468 99.7651 47.4967 99.7375 47.3557 99.8478 47.3281 100.013 47.3039 100.164 47.406 100.305 47.5564 100.33 47.5632 100.33 47.5696 100.331 47.5764 100.332 48.3487 100.442 49.2037 100.458 49.2313 100.458 49.3833 100.466 49.5135 100.35 49.5221 100.197 49.5224 100.192 49.5224 100.187 49.5224 100.182 49.5378 100.013 49.3998 99.8907 49.2466 99.8907ZM45.8264 99.572C45.8264 99.572 44.9989 99.5046 44.2542 99.3391 44.0991 99.313 43.9496 99.4083 43.9079 99.5597 43.8834 99.7136 43.9784 99.8613 44.1286 99.903 44.9131 100.068 45.7406 100.139 45.7835 100.139 45.941 100.14 46.0691 100.013 46.0697 99.8552 46.0704 99.7133 45.9668 99.5928 45.8264 99.572ZM42.4614 99.0234C42.446 99.0234 41.6216 98.8978 40.8892 98.6924 40.739 98.6373 40.5858 98.7353 40.5306 98.8855 40.4877 99.0357 40.5858 99.1889 40.7359 99.2441 41.4929 99.4647 42.3327 99.5904 42.3633 99.5904 42.5184 99.6177 42.6661 99.5141 42.6934 99.3593 42.6937 99.3575 42.694 99.3559 42.6943 99.3544 42.7262 99.2055 42.6312 99.059 42.4822 99.0271 42.4752 99.0256 42.4684 99.0243 42.4614 99.0234ZM39.127 98.2358C39.127 98.2358 38.2964 98.0427 37.5946 97.7945 37.4466 97.7418 37.2836 97.8147 37.2238 97.96 37.1708 98.1089 37.2437 98.2729 37.3893 98.3338 38.134 98.5944 38.9615 98.7874 39.0013 98.8027 39.1564 98.8288 39.306 98.7335 39.3476 98.5821 39.3737 98.427 39.2784 98.2775 39.127 98.2358ZM35.8569 97.2306C35.8447 97.2152 35.0448 96.9823 34.3522 96.6636 34.2042 96.609 34.0384 96.6734 33.966 96.8138 33.9118 96.9627 33.9777 97.1288 34.1193 97.1999 34.8487 97.5186 35.6516 97.7669 35.6792 97.7669 35.8223 97.819 35.9805 97.7448 36.0326 97.6017 36.0344 97.5965 36.0362 97.5913 36.0378 97.5861 36.0883 97.4423 36.0126 97.2848 35.8689 97.2346 35.8649 97.233 35.8609 97.2318 35.8569 97.2306ZM32.6574 95.9863C32.6451 95.9863 31.8728 95.6829 31.1955 95.3243 31.0552 95.2523 30.8829 95.3081 30.8109 95.4484 30.7389 95.5888 30.7947 95.761 30.935 95.8331 31.6246 96.207 32.4245 96.5104 32.4521 96.5257 32.6004 96.5836 32.7674 96.5104 32.8254 96.362 32.8254 96.3614 32.8257 96.3608 32.826 96.3602 32.8802 96.2106 32.8054 96.0448 32.6574 95.9863ZM29.5559 94.5122C29.5406 94.5122 28.7959 94.1812 28.1615 93.7675 28.0236 93.6847 27.8428 93.7245 27.7631 93.8502 27.6803 93.9881 27.7202 94.1689 27.8428 94.2486 28.5201 94.6899 29.2924 95.0209 29.32 95.0485 29.4701 95.1037 29.6387 95.0485 29.7061 94.8953 29.759 94.7478 29.6948 94.5842 29.5559 94.5122ZM26.5617 92.8419C26.5617 92.8419 25.8293 92.4435 25.2225 91.9991 25.0953 91.905 24.9161 91.9311 24.821 92.0574 24.7283 92.183 24.7528 92.3598 24.8761 92.4558 25.5228 92.9369 26.2553 93.3384 26.2951 93.3507 26.4348 93.423 26.6069 93.3684 26.6793 93.2287 26.68 93.2275 26.6806 93.2262 26.6812 93.225 26.7498 93.0859 26.6972 92.9173 26.5617 92.8419ZM23.7054 90.9816C23.6932 90.9816 22.9883 90.5127 22.4244 90.0316 22.2987 89.9213 22.121 89.9335 22.026 90.0592 21.9156 90.1848 21.9279 90.3626 22.0536 90.4576 22.645 90.9816 23.3652 91.4505 23.3928 91.4659 23.5307 91.5486 23.7116 91.521 23.7912 91.3831 23.8709 91.2452 23.8433 91.0644 23.7054 90.9816ZM20.9748 88.913C20.9748 88.913 20.3128 88.4012 19.7612 87.8802 19.6556 87.7656 19.4772 87.7585 19.3628 87.8639 19.2483 87.9694 19.241 88.1477 19.3465 88.2623 19.3517 88.2679 19.3571 88.2734 19.3628 88.2786 19.9267 88.8456 20.604 89.3543 20.6315 89.3666 20.7569 89.4609 20.935 89.4364 21.0299 89.3114 21.125 89.1882 21.1021 89.011 20.9787 88.916 20.9774 88.9148 20.9761 88.9139 20.9748 88.913ZM18.3974 86.6512C18.3974 86.639 17.7752 86.0996 17.2665 85.5326 17.1562 85.41 16.9754 85.3947 16.8681 85.505 16.7424 85.6154 16.7302 85.7962 16.8405 85.9035 17.3646 86.5103 17.999 87.0619 18.0265 87.0742 18.1341 87.1771 18.3048 87.1738 18.4079 87.0662 18.4139 87.0601 18.4196 87.0533 18.425 87.0466 18.5353 86.9393 18.52 86.7462 18.3974 86.6512ZM15.9824 84.224C15.9824 84.224 15.4032 83.6172 14.9343 83.0226 14.8393 82.897 14.6584 82.8725 14.5359 82.9675 14.4133 83.0625 14.3857 83.2433 14.4807 83.3689 14.9649 84.0033 15.5564 84.5948 15.584 84.6224 15.6895 84.737 15.8679 84.7441 15.9824 84.6386 16.0969 84.5332 16.1042 84.3549 15.9986 84.2402 15.9934 84.2347 15.988 84.2292 15.9824 84.224ZM13.7482 81.6159C13.7482 81.6037 13.2088 80.9815 12.7828 80.3594 12.6946 80.2282 12.5177 80.1915 12.3844 80.2767 12.2532 80.3649 12.2165 80.5418 12.3017 80.6751 12.7553 81.3371 13.2947 81.9592 13.3222 81.9868 13.4203 82.1124 13.5981 82.1247 13.7237 82.0143 13.8463 81.9193 13.8586 81.7416 13.7482 81.6159ZM11.7071 78.873C11.7071 78.8608 11.1831 78.1988 10.8245 77.5491 10.7402 77.4148 10.5674 77.367 10.4261 77.4388 10.2901 77.5233 10.242 77.698 10.3158 77.8402 10.7142 78.5298 11.226 79.1918 11.2536 79.2193 11.3492 79.3447 11.5283 79.3686 11.6535 79.273 11.7788 79.1774 11.8028 78.9984 11.7071 78.873ZM9.84687 75.9892C9.84687 75.9892 9.3933 75.2996 9.05924 74.5947 8.99182 74.4599 8.82633 74.4047 8.67309 74.4721 8.53518 74.5396 8.48308 74.7081 8.5505 74.8583 8.89375 75.5754 9.35039 76.2772 9.36265 76.3079 9.45281 76.4363 9.62722 76.4725 9.76106 76.3906 9.89232 76.3011 9.93011 76.1243 9.84687 75.9892ZM7.66787 73.1359C7.66787 72.998 7.75062 72.8877 7.87321 72.8478 7.99886 72.8203 8.12145 72.8601 8.19193 72.9704 7.93778 72.5156 7.7116 72.0461 7.51464 71.5637 7.45947 71.4163 7.2952 71.3415 7.14779 71.3967 7.14647 71.3973 7.14513 71.3976 7.14381 71.3982 6.99057 71.4534 6.92315 71.6189 6.97831 71.7721 7.65255 73.4822 7.86095 73.4393 7.99886 73.4148 8.1341 73.3924 8.23371 73.276 8.23484 73.139 8.23993 72.9851 8.11924 72.8561 7.9653 72.8509 7.96322 72.8509 7.9611 72.8509 7.95902 72.8509 7.80692 72.8423 7.6767 72.9588 7.66815 73.1108 7.66766 73.1191 7.66756 73.1276 7.66787 73.1359ZM6.75766 69.8965C6.75766 69.8812 6.41135 69.1242 6.17843 68.4071 6.13509 68.2609 5.98158 68.1779 5.83555 68.2211 5.83028 68.2226 5.82504 68.2244 5.81986 68.2263 5.67383 68.2695 5.59056 68.423 5.63386 68.5692 5.63543 68.5744 5.63717 68.5796 5.63904 68.5848 5.87502 69.3296 6.23053 70.1019 6.24585 70.1294 6.30102 70.2827 6.48183 70.3348 6.61974 70.2674 6.75655 70.2128 6.82333 70.0577 6.76887 69.9211 6.76556 69.9128 6.76179 69.9045 6.75766 69.8965ZM5.55629 66.6817C5.55629 66.6694 5.23757 65.8971 5.07207 65.1646 5.03027 65.0132 4.88068 64.9179 4.72576 64.944 4.57565 64.9857 4.48071 65.1334 4.5051 65.2872 4.68592 66.0718 5.00158 66.8594 5.01691 66.887 5.07207 67.0402 5.25289 67.1077 5.3908 67.0525 5.53852 66.9955 5.61244 66.8297 5.55629 66.6817ZM4.56333 63.3994C4.56333 63.3994 4.31509 62.5995 4.18944 61.8548 4.16311 61.6997 4.01595 61.5952 3.86075 61.6215 3.85999 61.6215 3.85922 61.6219 3.85845 61.6219 3.70467 61.6464 3.59973 61.7907 3.62407 61.9446 3.62452 61.9473 3.62502 61.9501 3.62554 61.9528 3.74812 62.7374 4.01169 63.5404 4.02395 63.5802 4.06728 63.7264 4.22079 63.8094 4.36683 63.7662 4.3721 63.7647 4.37734 63.7628 4.38252 63.761 4.52873 63.7181 4.61258 63.5652 4.56983 63.419 4.5679 63.4123 4.56572 63.4058 4.56333 63.3994ZM3.80635 60.0619C3.80635 60.0497 3.61328 59.2345 3.54585 58.5051 3.53816 58.353 3.40862 58.2357 3.25649 58.2436 3.2518 58.2436 3.24711 58.2439 3.24245 58.2446 3.09032 58.2522 2.9732 58.3819 2.98088 58.5339 2.98112 58.5388 2.98147 58.5434 2.98195 58.548 3.04937 59.3356 3.24245 60.1631 3.24245 60.1906 3.28425 60.342 3.43384 60.4374 3.58876 60.4113 3.73767 60.3647 3.83017 60.2161 3.80635 60.0619ZM3.28229 56.6816C3.28229 56.6816 3.14438 55.8541 3.13212 55.094 3.13236 54.9417 3.00906 54.8179 2.85672 54.8179 2.85147 54.8179 2.84622 54.8179 2.84097 54.8182 2.68774 54.8182 2.54983 54.9439 2.56515 55.1094 2.57741 55.9093 2.71532 56.7367 2.71532 56.7766 2.74623 56.9301 2.89103 57.0334 3.04631 57.0126 3.20172 56.9844 3.30641 56.8376 3.28229 56.6816ZM2.99421 53.2767C2.99421 53.2644 2.92679 52.4216 2.9513 51.6647 2.96147 51.5145 2.84788 51.3842 2.69758 51.3741 2.69022 51.3735 2.68285 51.3735 2.67548 51.3735 2.52518 51.3634 2.3951 51.4768 2.38493 51.6273 2.38443 51.6346 2.38424 51.642 2.38433 51.6493 2.35675 52.437 2.42724 53.292 2.42724 53.3196 2.43492 53.4716 2.56448 53.589 2.71662 53.581 2.7213 53.581 2.72598 53.5807 2.73064 53.5801 2.88606 53.5703 3.0042 53.4367 2.99452 53.2813 2.99443 53.2798 2.99433 53.2782 2.99421 53.2767ZM2.9513 49.8565C2.9513 49.8565 2.93598 49.0168 3.01873 48.2996 3.03098 48.1341 2.92372 47.9962 2.77049 47.9809 2.60499 47.9686 2.46708 48.079 2.45176 48.2291 2.36901 48.9892 2.38433 49.8289 2.38433 49.8718 2.3841 50.0241 2.5074 50.1479 2.65973 50.1479 2.66498 50.1479 2.67024 50.1479 2.67548 50.1476 2.82565 50.1446 2.96356 50.022 2.9513 49.8565ZM3.14438 46.4639C3.14438 46.4485 3.18422 45.6211 3.32213 44.8764 3.3464 44.7213 3.24337 44.5748 3.08921 44.5454 2.93314 44.5212 2.7863 44.626 2.75823 44.7813 2.66716 45.325 2.60679 45.8736 2.57741 46.424 2.56515 46.5895 2.68774 46.7274 2.83791 46.7274 3.0034 46.7397 3.14438 46.614 3.14438 46.4639ZM3.57037 43.0712C3.57037 43.0712 3.6807 42.2315 3.87378 41.4991 3.91316 41.3437 3.82235 41.1852 3.66844 41.1405 3.51343 41.0979 3.35312 41.1889 3.31042 41.344 3.31024 41.3446 3.31006 41.3452 3.30987 41.3458 3.17622 41.891 3.07389 42.4436 3.0034 43.0008 2.97913 43.1512 3.08137 43.2928 3.23175 43.317 3.23834 43.318 3.24499 43.3189 3.25164 43.3195 3.40488 43.3471 3.55811 43.2367 3.57037 43.0712ZM4.24767 39.7062C4.24767 39.7062 4.4009 38.8757 4.63382 38.1616 4.68807 38.0228 4.61957 37.8665 4.48086 37.8122 4.47176 37.8085 4.46244 37.8055 4.453 37.803 4.31203 37.75 4.15472 37.8211 4.10161 37.9621 4.09891 37.9691 4.09652 37.9765 4.09443 37.9838 3.91524 38.515 3.77693 39.0589 3.6807 39.6112 3.65195 39.7641 3.75272 39.9115 3.90574 39.9404 3.90939 39.941 3.91304 39.9416 3.91668 39.9422 4.07169 39.9695 4.21954 39.8659 4.24687 39.7111 4.24715 39.7093 4.24742 39.7077 4.24767 39.7062ZM5.14256 36.4086C5.14256 36.3963 5.36322 35.5934 5.65437 34.8916 5.70999 34.7393 5.63745 34.5701 5.48887 34.5054 5.35096 34.4503 5.18547 34.5177 5.11498 34.6709 4.81157 35.4003 4.59092 36.2278 4.57559 36.2584 4.53814 36.4144 4.6299 36.5723 4.78399 36.617 4.94023 36.6562 5.09923 36.5637 5.14256 36.4086ZM6.27343 33.1692C6.27343 33.1692 6.54926 32.3693 6.88024 31.6951 6.94767 31.5449 6.89557 31.3764 6.75766 31.3089 6.60442 31.2415 6.43893 31.2967 6.3715 31.4346 6.12541 31.9397 5.91345 32.461 5.73711 32.9945 5.68357 33.1352 5.7543 33.293 5.8951 33.3464 5.90159 33.3488 5.90818 33.3513 5.91486 33.3531 6.06503 33.4021 6.23359 33.3194 6.27343 33.1692ZM7.62496 30.0248C7.62496 30.0095 7.95595 29.2372 8.32678 28.5906 8.40953 28.4526 8.36969 28.2718 8.23178 28.2044 8.09693 28.1217 7.91611 28.1615 7.84869 28.2994 7.43189 28.989 7.1009 29.7613 7.08558 29.7889 7.03284 29.9378 7.0983 30.1028 7.23881 30.175 7.38699 30.2312 7.55368 30.1664 7.62496 30.0248ZM9.1849 26.9755C9.1849 26.9632 9.57105 26.2307 9.99704 25.5963 10.0822 25.4631 10.0455 25.2862 9.91429 25.1979 9.78012 25.1124 9.60225 25.1491 9.51282 25.2807 9.07457 25.9273 8.68841 26.6874 8.67309 26.715 8.60518 26.8566 8.6605 27.0266 8.79874 27.1011 8.94036 27.169 9.11036 27.1137 9.1849 26.9755ZM10.9624 24.0395C10.9777 24.0395 11.3915 23.3223 11.8726 22.7431 11.9707 22.6163 11.9533 22.4351 11.8328 22.3294 11.706 22.2313 11.5248 22.2487 11.4191 22.3692 11.0746 22.8065 10.7613 23.2673 10.4813 23.7483 10.3985 23.8862 10.4384 24.0671 10.5763 24.1345 10.7142 24.2172 10.895 24.1774 10.9624 24.0395ZM12.9514 21.2383C12.9514 21.2383 13.4203 20.5641 13.929 19.9971 14.0394 19.8868 14.0241 19.706 13.9015 19.5957 13.7911 19.4884 13.6103 19.5007 13.5 19.6263 12.9759 20.2055 12.4917 20.8828 12.4672 20.9227 12.382 21.0559 12.4187 21.2328 12.5499 21.3211 12.6725 21.4038 12.8533 21.3793 12.9514 21.2383ZM15.1151 18.5904C15.1151 18.5904 15.6269 17.9407 16.1908 17.4167 16.3011 17.3063 16.3164 17.1133 16.2031 17.0029 16.0897 16.8926 15.8996 16.8803 15.7893 16.9907 15.2101 17.5576 14.686 18.2196 14.6584 18.2472 14.5657 18.373 14.5902 18.5497 14.7136 18.6456 14.8399 18.7404 15.019 18.7158 15.1151 18.5904ZM17.4596 16.108C17.4596 16.0958 18.0265 15.4737 18.618 15.0048 18.7385 14.899 18.756 14.7178 18.6579 14.591 18.5521 14.4705 18.3709 14.4531 18.2441 14.5512 17.6373 15.0599 17.0581 15.6943 17.0305 15.7096 16.9253 15.8293 16.9306 16.0101 17.0428 16.1234 17.1643 16.2282 17.3461 16.2215 17.4596 16.108ZM19.9696 13.7789C19.9696 13.7636 20.5764 13.1996 21.1954 12.7583 21.3211 12.6756 21.3487 12.4948 21.2537 12.3569 21.1679 12.2343 20.9901 12.2067 20.8522 12.3048 20.2178 12.7583 19.5987 13.3376 19.5681 13.3498 19.4559 13.4631 19.4506 13.6438 19.5558 13.7636 19.6676 13.8781 19.8496 13.8848 19.9696 13.7789ZM22.645 11.6397C22.645 11.6275 23.2948 11.1034 23.9414 10.7019 24.0698 10.6118 24.106 10.4373 24.0242 10.3035 23.9329 10.1747 23.7575 10.1385 23.6227 10.2208 22.9607 10.6345 22.2987 11.1739 22.2742 11.1861 22.1513 11.2902 22.1324 11.4728 22.2313 11.5999 22.3416 11.7225 22.5194 11.7378 22.645 11.6397ZM25.4431 9.68138C25.4554 9.66912 26.1327 9.20022 26.81 8.84165 26.9479 8.77423 27 8.59341 26.9326 8.4555 26.8651 8.31759 26.6843 8.26242 26.5464 8.32985 25.8293 8.70374 25.155 9.1849 25.1274 9.20022 24.9903 9.28082 24.9444 9.45738 25.025 9.59455 25.1056 9.73173 25.2822 9.77758 25.4194 9.69698 25.4275 9.69216 25.4354 9.68695 25.4431 9.68138ZM28.3944 7.91611C28.4067 7.91611 29.1116 7.49012 29.8134 7.18671 29.955 7.11546 30.0208 6.94951 29.9666 6.80056 29.8944 6.66005 29.7294 6.59458 29.5805 6.64733 29.0709 6.87424 28.5782 7.13746 28.1063 7.43495 27.9738 7.51001 27.9271 7.67829 28.0022 7.81087 28.0041 7.81433 28.0061 7.81773 28.0083 7.82111 28.0845 7.95295 28.2533 7.998 28.3851 7.92172 28.3883 7.91991 28.3913 7.91804 28.3944 7.91611ZM31.456 6.38683C31.4683 6.38683 32.2161 5.98535 32.9179 5.73711 33.0619 5.67631 33.1343 5.51419 33.0834 5.36628 33.0224 5.22056 32.8584 5.14789 32.7095 5.20079 31.9801 5.46129 31.2201 5.86276 31.1925 5.87502 31.0543 5.94956 30.9988 6.11956 31.0668 6.26118 31.1438 6.39857 31.3135 6.45339 31.456 6.38683ZM34.6157 5.06288C34.6157 5.05062 35.3881 4.73189 36.1052 4.51123 36.2554 4.46833 36.3534 4.31816 36.2983 4.16799 36.2554 4.01475 36.1052 3.91975 35.955 3.97491 35.195 4.19557 34.4227 4.51123 34.3828 4.52656 34.2412 4.59784 34.1766 4.76453 34.2327 4.91271 34.3028 5.05378 34.4683 5.11872 34.6157 5.06288ZM37.8429 3.94426C37.8582 3.94426 38.6581 3.68377 39.3875 3.53053 39.5407 3.50295 39.6357 3.34971 39.6081 3.18728 39.5806 3.03405 39.4273 2.93904 39.2649 2.96663 38.5048 3.11986 37.6927 3.39568 37.6651 3.40794 37.5189 3.45128 37.4359 3.60479 37.4791 3.75082 37.4806 3.75609 37.4825 3.76133 37.4843 3.76651 37.5269 3.91098 37.6786 3.99358 37.823 3.95095 37.8297 3.94895 37.8364 3.94675 37.8429 3.94426ZM41.165 3.08921C41.1773 3.07696 41.9649 2.86856 42.7249 2.75823 42.8766 2.74494 42.9888 2.61115 42.9756 2.4594 42.975 2.45274 42.9741 2.4461 42.9732 2.4395 42.9618 2.28928 42.831 2.17668 42.6808 2.18799 42.6719 2.18866 42.663 2.18975 42.6544 2.19126 41.8546 2.30159 41.0424 2.52225 41.0148 2.52225 40.8616 2.56515 40.7666 2.73064 40.8095 2.88081 40.8524 3.03098 41.0148 3.13212 41.165 3.08921ZM44.53 2.44256C44.53 2.44256 45.3575 2.27707 46.1176 2.2219 46.2696 2.21422 46.3869 2.08467 46.379 1.93253 46.379 1.92784 46.3787 1.92317 46.3781 1.9185 46.3682 1.76308 46.2346 1.64494 46.0792 1.65462 46.0777 1.65472 46.0762 1.65482 46.0746 1.65494 45.2748 1.71317 44.4473 1.87559 44.4075 1.87559 44.2573 1.90318 44.1592 2.05641 44.1868 2.21884 44.2144 2.37208 44.3676 2.47015 44.53 2.44256ZM47.9227 2.02883C47.9227 2.02883 48.7654 1.93076 49.5224 1.93076 49.6781 1.93076 49.8044 1.80452 49.8044 1.64881 49.8044 1.49309 49.6781 1.36685 49.5224 1.36685 48.7379 1.36685 47.8951 1.46492 47.8552 1.46492 47.7051 1.47718 47.5947 1.6151 47.607 1.78365 47.6223 1.93522 47.7575 2.04576 47.9089 2.03055 47.9135 2.03009 47.9181 2.02952 47.9227 2.02883ZM51.3582 1.86334C51.3582 1.86334 52.1979 1.82043 52.9457 1.87559 53.0998 1.88293 53.2332 1.76864 53.2491 1.6151 53.2644 1.46492 53.1388 1.32701 52.9886 1.31169 52.201 1.25653 51.3613 1.29943 51.3183 1.29943 51.1682 1.29943 51.0425 1.43734 51.0578 1.60284 51.0548 1.75301 51.1927 1.87559 51.3582 1.86334ZM54.7508 1.94608C54.7631 1.94608 55.5905 1.94608 56.3383 2.07173 56.4934 2.09907 56.6411 1.99556 56.6684 1.84055 56.6687 1.83895 56.669 1.83735 56.6693 1.83575 56.6969 1.68078 56.5936 1.53277 56.4388 1.50517 56.4379 1.50503 56.437 1.5049 56.4364 1.50477 55.6334 1.37911 54.7906 1.37911 54.7508 1.37911 54.5951 1.38241 54.4716 1.5113 54.475 1.66698 54.475 1.66807 54.475 1.66917 54.475 1.67026 54.475 1.82043 54.5976 1.94608 54.7508 1.94608ZM58.1434 2.24949C58.1587 2.24949 58.9985 2.33223 59.7432 2.49773 59.898 2.52236 60.0466 2.42763 60.0895 2.27707 60.1168 2.12258 60.0209 1.97304 59.8688 1.93382 59.3181 1.82097 58.7616 1.7381 58.2016 1.68558 58.0463 1.67332 57.9105 1.78922 57.8982 1.94445 57.8982 1.945 57.8982 1.94554 57.8982 1.94608 57.8799 2.09932 57.9902 2.23416 58.1434 2.24949ZM35.4003 52.7373C34.297 52.4615 33.0282 54.5301 32.8352 54.9163 32.685 55.2595 32.3387 56.1023 31.9648 57.0126 31.6663 57.7944 31.3445 58.567 30.9994 59.3295 30.9617 59.4205 30.9154 59.5075 30.8615 59.59 30.2302 60.2826 29.6908 60.8342 29.513 60.9997 29.0595 61.3981 27.8703 62.1858 27.1532 62.1183 26.8498 62.0908 26.7671 61.6341 26.9326 61.3736 27.1416 61.0567 27.3763 60.7573 27.6344 60.4787 28.0083 60.0926 28.5875 59.7616 28.7806 59.7616 28.9307 59.8443 28.9032 60.1477 28.8756 60.2703 28.8327 60.5339 29.0135 60.7668 29.274 60.822 29.5351 60.8591 29.7788 60.6831 29.8256 60.4236 29.9513 59.7064 29.7 59.1119 29.1483 58.8636 28.4189 58.5602 27.3126 59.403 26.9264 59.829 26.7364 60.0343 26.5004 60.3531 26.2246 60.7116 25.8792 61.2127 25.4917 61.6835 25.0662 62.1183 24.9282 62.2562 24.7076 62.4064 24.4747 62.3788 24.2816 62.3512 24.1008 62.2133 23.9629 61.9804 23.8525 61.7996 24.2387 60.9997 24.8332 60.2581 25.0662 60.0374 25.2194 59.6788 24.916 59.4153 24.5697 59.1395 24.3214 59.3877 24.1008 59.6359 23.2886 60.6166 22.2803 61.6494 22.0198 61.8149 21.6061 62.0754 21.2751 62.4769 20.9012 62.1337 20.8338 61.9682 21.0391 61.4993 21.3855 60.9476 21.744 60.5891 22.1026 60.1477 22.3784 59.6083 22.4946 59.3941 22.4297 59.1266 22.2282 58.9893 22.0275 58.8474 21.7515 58.8835 21.5939 59.072 21.2357 59.4827 20.9041 59.9157 20.6009 60.3684 20.2025 60.7668 19.7612 61.0855 19.3474 61.3767 18.951 61.6396 18.5768 61.9351 18.2288 62.2593 17.9254 62.5627 17.7875 62.6301 17.7323 62.6455 17.6741 62.6026 17.5791 62.4524 17.4964 62.3543 17.4289 61.9835 18.189 60.4511 18.6425 59.9547 18.8755 59.7217 19.2095 59.4459 19.041 59.072 18.8601 58.6736 18.4617 58.7962 18.1185 58.7962 17.7998 58.7962 17.0397 59.2651 15.869 60.1906 16.0345 59.8719 16.2153 59.544 16.3931 59.1701 18.4066 57.3773 21.22 54.7294 21.646 53.6261 21.8666 53.0744 22.0321 52.4553 21.7042 52.0692 21.413 51.7382 20.9717 51.8332 20.7786 51.8761 20.7664 51.8884 20.7235 51.8884 20.7235 51.8884 20.2117 51.9864 17.9101 53.4759 16.2551 57.2271 16.0576 57.684 15.846 58.1348 15.6208 58.5786 15.0691 59.1701 14.45 59.7646 13.8708 60.2335 13.3468 60.6473 10.7111 62.3298 10.2729 61.061 10.0522 60.4052 10.1779 59.1517 10.8797 57.8829 11.8451 56.1452 14.686 54.144 15.348 53.954 15.8016 53.8283 16.1632 53.7486 16.2582 54.0214 16.2858 54.475 16.1755 55.4404 15.7219 55.7989 15.4737 56.0073 15.0998 56.1851 14.8393 55.9522 14.946 55.7088 15.0852 55.4811 15.253 55.2749 15.4174 55.0714 15.3931 54.7747 15.1978 54.6006 14.9934 54.4358 14.6956 54.46 14.5205 54.6558 14.2018 55.0419 13.5552 55.9644 14.067 56.5314 14.4654 57.0156 15.3082 57.3313 16.3134 56.559 17.2788 55.7713 17.3217 54.0888 17.1684 53.5648 16.9478 52.7097 15.7342 52.8323 15.0844 53.0254 14.0639 53.3165 11.085 55.52 10.0369 57.4263 9.29216 58.7656 9.0286 60.2948 9.35958 61.343 9.46617 61.7601 9.7477 62.111 10.1319 62.3053 11.2628 62.8447 13.2487 61.8517 14.3121 60.9813 14.0534 61.4202 13.7625 61.8391 13.4418 62.2348 13.2763 62.4156 13.2916 62.7037 13.4693 62.8845 13.6471 63.0653 13.9382 63.0745 14.116 62.9121 15.1764 61.9743 16.4053 60.966 17.2328 60.3469 16.7639 61.1744 16.3073 62.293 16.6934 62.8569 16.9141 63.1879 17.1623 63.5587 17.6312 63.6016 18.0174 63.6292 18.3912 63.4362 18.9 62.9243 19.1758 62.6485 19.5466 62.388 19.9328 62.1122 19.945 62.388 20.0002 62.6639 20.2362 62.814 21.2445 63.4484 21.7103 63.2124 22.0566 62.9948 22.4117 62.7696 22.7407 62.5054 23.0373 62.2072 23.239 62.7901 23.7414 63.2173 24.349 63.3228 24.8585 63.3712 25.362 63.1836 25.7159 62.814 25.8538 62.6884 25.9764 62.5505 26.102 62.4125 26.1419 62.4677 26.1694 62.5382 26.2124 62.5934 26.4054 62.8692 26.7088 63.0347 27.0674 63.0623 27.76 63.1174 28.517 62.7864 29.1085 62.4401 28.9763 62.6669 28.8342 62.8879 28.6825 63.1021 28.5326 63.32 28.5812 63.6176 28.7928 63.7763 29.0135 63.9296 29.3169 63.8744 29.4701 63.666 29.5529 63.5281 30.0616 62.7435 30.5734 61.9007 30.6988 62.0062 30.8379 62.0938 30.9871 62.1612 30.9994 62.6455 31.0975 63.4178 31.6644 63.6936 32.3938 64.0644 33.1661 63.8039 33.7607 63.5404 35.3482 62.811 35.3482 62.5321 35.3482 62.3543 35.3549 62.0938 35.1493 61.8768 34.8888 61.8701 34.8815 61.8701 34.8744 61.8701 34.8671 61.8701 34.7288 61.8686 34.5971 61.9292 34.5085 62.0356 34.3982 62.1183 33.8863 62.434 33.3623 62.67 32.7708 62.9305 32.3969 62.9887 32.0935 62.8355 32.0935 62.8232 32.0935 62.8355 32.0935 62.8355 32.0383 62.7803 31.9954 62.5995 31.9678 62.3942 32.3463 62.3724 32.7144 62.2633 33.0436 62.0754 33.5799 61.772 34.0243 61.2909 34.1315 60.9047 34.199 60.6565 34.3123 60.3132 34.1315 59.9516 33.9384 59.6083 33.5646 59.4674 33.2918 59.3846 32.9884 59.3019 32.6176 59.3724 32.2437 59.4796 33.4297 58.171 34.7291 56.6264 35.0019 55.9215 35.1122 55.6304 35.2624 55.327 35.4156 55.0266 35.7895 54.2267 36.1052 53.6046 35.8845 53.1234 35.7828 52.9337 35.6078 52.7943 35.4003 52.7373Z" fill="#3B4095" fill-rule="nonzero" fill-opacity="1" transform="matrix(1 0 0 1.0016 613.007 51)"/><path d="M22.0382 61.8119C22.0382 61.8119 22.0505 61.8119 22.0781 61.7996 22.0658 61.8119 22.0505 61.8119 22.0382 61.8119ZM34.4503 62.1429C34.4503 62.1429 34.438 62.1429 34.438 62.1551 34.4349 62.1429 34.4503 62.1429 34.4503 62.1429ZM31.1128 61.1223 31.1128 61.1376ZM96.069 57.2056C95.8637 56.9727 95.5174 56.8777 95.0485 56.9298 94.6899 56.9727 94.221 57.2485 93.8226 57.509 93.742 57.273 93.5992 57.0634 93.4089 56.9022 92.8021 56.3628 91.8643 56.4333 91.7539 56.4486L91.7141 56.4486C90.4453 56.2678 89.1061 58.1036 88.5973 58.9035 88.487 59.069 88.0303 59.3999 87.6442 59.7034 87.3843 59.8875 87.1309 60.0809 86.8841 60.2826 86.2498 60.8066 85.9188 60.8618 85.6981 60.8189 85.6705 60.7515 85.6154 60.4879 85.8084 59.7432 86.3601 59.3141 86.8014 58.9433 86.9792 58.7226L87.1845 58.4744C88.7015 56.6693 90.2737 54.6834 90.4668 53.7303 90.5771 53.1633 90.6874 52.1581 90.096 51.8547 89.9427 51.7719 89.5443 51.6463 89.1183 52.1427 88.5943 52.722 86.3172 55.7713 85.4775 57.8952 85.3395 58.266 85.0637 58.8881 84.9687 59.1762L84.4446 59.5777C84.6653 59.1915 85.5204 58.3365 84.9136 57.8952 84.6953 57.7524 84.403 57.8137 84.2602 58.0316 84.2574 58.0362 84.2543 58.0408 84.2516 58.0454 83.6999 58.9402 82.3913 60.1539 81.9622 60.5553 81.3279 61.1622 81.3003 61.1775 80.8038 61.1223 80.7609 60.9691 80.816 60.5155 80.9417 60.114 81.4259 59.6451 81.95 59.0536 82.474 58.3212 82.6239 58.1033 82.5752 57.8057 82.3637 57.6469 82.1449 57.4968 81.8464 57.5452 81.6864 57.7573 80.7486 59.0812 79.7557 59.8811 78.542 60.8618 78.3214 61.0396 77.828 61.248 77.5092 61.1652 77.4293 60.795 77.4679 60.4088 77.6196 60.0619L78.4624 59.2345C78.5574 59.1364 79.0263 58.6276 78.9435 58.0331 78.8838 57.6911 78.664 57.3981 78.352 57.2455 77.4265 56.749 76.6419 56.9421 75.744 57.2455 75.3149 57.3834 74.7234 57.7573 73.66 58.6522 73.2867 58.9752 72.9045 59.2881 72.5138 59.59 73.1482 58.0729 74.3342 55.1339 74.61 54.4474 74.7253 54.3343 74.8503 54.2316 74.9839 54.1409 75.6061 53.9632 76.1976 53.6996 76.6665 53.3288 76.8473 53.1875 76.9003 52.9365 76.7921 52.7342 76.6916 52.5298 76.4602 52.4259 76.2405 52.486 76.1976 52.4982 75.3701 52.7342 74.5702 53.2583 72.998 53.6567 71.1653 53.479 71.1377 53.479 70.8745 53.452 70.6391 53.6432 70.6121 53.9065 70.5852 54.1697 70.7764 54.4051 71.0397 54.4321 71.1224 54.4474 72.2686 54.5577 73.5926 54.4045 72.8589 56.2776 72.0958 58.1391 71.3032 59.9884L71.2848 60.0068C71.0243 59.8535 70.7608 59.5379 70.4298 59.069L70.249 58.8085C70.0007 58.4897 69.7249 58.3396 69.4215 58.3794 68.9373 58.4223 68.6615 58.9464 68.4285 59.4275 68.2079 59.9118 68.2355 60.5155 68.4837 61.1101 68.7087 61.6755 69.15 62.1278 69.7096 62.3666 70.5646 62.67 71.3094 61.7873 71.7783 61.0549 71.9903 61.02 72.1954 60.9507 72.3851 60.8495 72.5383 60.7515 72.716 60.6289 72.8969 60.5032 72.9245 60.6534 72.952 60.8066 73.0195 60.9599 73.2309 61.4285 73.6597 61.7631 74.1657 61.8548 74.8828 62.008 75.9309 61.4135 76.5255 61.0273 76.5377 61.4686 76.6756 61.867 77.0771 62.0478 77.8494 62.3359 78.7596 61.9222 79.1611 61.5912 79.2714 61.5085 79.4798 61.3552 79.8353 61.0794 79.8442 61.2866 79.9009 61.4892 80.0008 61.6709 80.1443 61.8903 80.3756 62.0368 80.6352 62.0724 80.7731 62.0846 80.8835 62.0999 80.9938 62.0999 80.4673 62.5118 79.9782 62.9691 79.5319 63.4668 79.1182 63.9786 78.3061 65.5201 78.6493 66.1699 78.7167 66.32 78.8546 66.4457 79.0355 66.4886 79.3664 66.5867 79.8905 66.4058 80.2491 66.1423 81.8059 65.0543 82.5231 64.1717 82.9521 62.2256 83.0165 62.0169 83.1094 61.8177 83.228 61.6341 83.7244 61.2755 84.2363 60.917 84.7021 60.5737 84.7021 60.917 84.7695 61.1376 84.8553 61.2755 84.9779 61.5238 85.1986 61.6893 85.4621 61.7444 86.0965 61.8824 86.7033 61.6617 87.491 61.012 87.7515 60.8066 88.0579 60.5829 88.3184 60.3776 88.346 60.4879 88.3736 60.5829 88.4012 60.6687 88.5817 61.0579 88.9347 61.3393 89.3543 61.4288 90.0714 61.6065 91.5609 60.0098 91.8919 59.3448 92.0298 59.0414 92.5263 58.1986 92.5385 57.4845 92.6213 57.5244 92.7193 57.5673 92.7868 57.6224 92.8542 57.6776 92.9369 57.7879 92.9522 58.0086 92.9798 58.7686 92.0972 60.1324 91.5302 60.8097 91.3653 61.0141 91.3896 61.312 91.5854 61.487 91.7898 61.6519 92.0877 61.6277 92.2627 61.4318 92.4129 61.251 93.4763 59.9547 93.8073 58.7288 94.1107 58.4805 94.8401 57.8737 95.2814 57.8737 95.2777 58.1376 95.4886 58.3549 95.7528 58.3586 95.9688 58.3616 96.1601 58.2194 96.2192 58.0116 96.3044 57.7346 96.2483 57.4333 96.069 57.2056Z" fill="#3B4095" fill-rule="nonzero" fill-opacity="1" transform="matrix(1 0 0 1.0016 613.007 51)"/><path d="M70.0314 61.4686C69.7831 61.3859 69.5226 61.0825 69.3694 60.7239 69.2315 60.3929 69.2039 60.0466 69.302 59.829 69.3645 59.6893 69.4381 59.555 69.5226 59.4275 69.5502 59.4827 69.6054 59.5379 69.6452 59.6206 69.8812 59.9393 70.2674 60.4879 70.7761 60.8189 70.2643 61.5085 70.0314 61.4686 70.0314 61.4686ZM74.3618 60.917C74.1411 60.8618 73.9756 60.7515 73.9082 60.5737 73.7979 60.3255 73.8653 59.9792 74.089 59.6206 74.1013 59.593 74.1319 59.5532 74.1319 59.5103L74.2821 59.3846C74.8062 58.9433 75.6214 58.2537 75.8543 58.1986 76.0465 58.1799 76.2362 58.1431 76.4213 58.0883 76.9024 57.9779 77.4694 57.8553 77.8954 58.0883 77.9628 58.1312 77.9904 58.1557 77.9904 58.171 78.0027 58.2384 77.8954 58.4315 77.7851 58.5572 77.7851 58.5572 76.5163 59.8106 76.3232 60.0068 75.6428 60.5032 74.6928 60.9844 74.3618 60.917ZM80.5801 64.5578C80.3196 64.7785 79.9733 65.0819 79.6576 65.2321 79.8078 64.8459 80.0437 64.3648 80.2797 64.0613 80.5555 63.7304 81.2175 63.1511 81.8243 62.6669 81.5209 63.4668 81.1317 64.1288 80.5801 64.5578ZM89.5872 53.0836C89.5872 53.2093 89.5596 53.3594 89.5167 53.5372 89.4493 53.9233 88.8823 54.9439 86.6206 57.6623 87.4756 55.9797 88.9528 53.9111 89.5872 53.0836ZM91.0767 58.8483C90.525 59.6482 89.8232 60.4052 89.5443 60.4879 89.4306 60.4631 89.3347 60.3874 89.2838 60.2826 89.2164 60.1171 89.2838 59.829 89.4646 59.495 89.5032 59.418 89.5222 59.3328 89.5198 59.2467 90.1971 58.2415 91.1073 57.3313 91.5609 57.3987L91.5762 57.3987C91.6406 57.6071 91.3923 58.2967 91.0767 58.8483Z" fill="#FFFFFF" fill-rule="nonzero" fill-opacity="1" transform="matrix(1 0 0 1.0016 613.007 51)"/><path d="M54.9286 67.8401C54.9286 66.2364 53.6285 64.9363 52.0248 64.9363 50.421 64.9363 49.121 66.2364 49.121 67.8401 49.121 69.4522 50.4173 70.7638 52.0324 70.7638 53.6349 70.7455 54.9252 69.4426 54.9286 67.8401Z" fill="#3B4095" fill-rule="nonzero" fill-opacity="1" transform="matrix(1 0 0 1.0016 613.007 51)"/><path d="M54.5853 67.8401C54.5896 69.2569 53.4446 70.4086 52.0278 70.4129 50.611 70.4172 49.4593 69.2723 49.455 67.8554 49.455 66.4212 50.6135 65.2627 52.0355 65.2627 53.4471 65.2661 54.5887 66.4132 54.5853 67.8248 54.5853 67.8297 54.5853 67.8349 54.5853 67.8401Z" fill="#FFFFFF" fill-rule="nonzero" fill-opacity="1" transform="matrix(1 0 0 1.0016 613.007 51)"/><path d="M50.9444 69.3694 51.3582 69.3694 51.3582 67.9903 52.4216 67.9903C53.0836 67.9903 52.9028 68.5818 52.9733 68.9526L53.0407 69.3663 53.5249 69.3663C53.3441 69.0783 53.3993 69.0078 53.3748 68.594 53.3165 68.0271 53.3165 67.9872 52.9886 67.7666 53.3073 67.5337 53.4299 67.3682 53.4023 66.9667 53.3594 66.2342 52.8783 66.1515 52.3818 66.1515L50.9475 66.1515 50.9475 69.3694Z" fill="#3B4095" fill-rule="nonzero" fill-opacity="1" transform="matrix(1 0 0 1.0016 613.007 51)"/><path d="M52.391 66.5162C52.6392 66.5162 53.0376 66.5836 52.9855 67.1352 52.9426 67.549 52.6668 67.6195 52.391 67.6195L51.3582 67.6195 51.3582 66.5162 52.391 66.5162ZM20.9074 52.8354C20.8798 52.9334 20.8399 53.0836 20.7572 53.2767 20.5212 53.8835 19.1145 55.3454 17.4749 56.8777 18.9766 53.9111 20.6867 52.9457 20.9074 52.8354ZM33.0436 60.3255C33.1692 60.3653 33.2366 60.4082 33.2795 60.4205 33.2642 60.4757 33.2366 60.586 33.2121 60.6412L33.2121 60.6534C33.1294 60.8741 32.3847 61.6065 31.6951 61.4135 31.3365 61.3154 31.1833 61.1775 31.1281 61.1101 31.8299 60.6687 32.7402 60.255 33.0436 60.3255ZM34.1039 55.5936C33.9783 55.9123 33.4971 56.5467 32.8903 57.2761 33.2213 56.4609 33.5646 55.6334 33.7055 55.33 33.9814 54.7661 34.5453 54.1042 34.9192 53.813 34.8076 54.0891 34.6838 54.3601 34.5483 54.6251 34.3951 54.9439 34.2296 55.2626 34.1039 55.5936ZM77.8647 75.0514 78.7596 74.0584C79.5748 73.1482 80.2491 72.9551 80.9815 73.6048 81.7109 74.2668 81.5883 74.9564 80.7609 75.8666L79.8783 76.8595 77.8647 75.0514ZM72.1276 84.5672 71.1469 81.052 74.0431 83.2709ZM22.4366 77.0097 25.7465 75.4375 24.0517 78.68ZM69.7402 12.7307 70.9539 13.31C72.0449 13.8494 72.4157 14.4409 71.9897 15.3235 71.5637 16.2061 70.8588 16.2766 69.7678 15.7372L68.5695 15.158 69.7402 12.7307ZM22.9883 24.8945C21.554 23.307 21.7348 21.1985 23.1262 19.9573 24.5206 18.6885 26.6414 18.7437 28.0634 20.3312 29.4854 21.9003 29.3322 23.9966 27.9133 25.2807 26.5066 26.5341 24.395 26.4667 22.9883 24.8945Z" fill="#FFFFFF" fill-rule="nonzero" fill-opacity="1" transform="matrix(1 0 0 1.0016 613.007 51)"/></g></g></g></g></g></svg>