<?xml version="1.0" encoding="UTF-8"?>
<svg id="Layer_1" data-name="Layer 1" xmlns="http://www.w3.org/2000/svg" viewBox="0 0 114.26 179.94">
  <defs>
    <style>
      .cls-1 {
        fill: #009245;
        stroke-width: 0px;
      }
    </style>
  </defs>
  <polygon class="cls-1" points="0 0 18.96 0 18.96 161.9 90.58 161.9 90.58 166.8 0 166.8 0 0"/>
  <g>
    <path class="cls-1" d="M3.74,164.24c9.5-.67,17.24-7.64,26.16-10.98,26.31-9.86,56.6,13.1,82.91,3.22-3.44,6.99-10.21,11.79-17.27,15.07-14.19,6.59-30.4,8.12-45.9,6.01-15.5-2.11-30.35-7.71-44.29-14.81"/>
    <path class="cls-1" d="M3.74,165.74c8.07-.65,14.75-5.28,21.76-8.86,6.56-3.36,13.5-4.82,20.86-4.62,14.72.4,28.74,5.89,43.27,7.69,7.91.98,16.04.76,23.58-2.03l-1.69-2.2c-3.03,6.02-8.41,10.24-14.28,13.32-6.61,3.46-13.89,5.66-21.24,6.85-15.3,2.49-30.99.37-45.66-4.31-8.36-2.67-16.41-6.16-24.23-10.13-1.72-.87-3.24,1.71-1.51,2.59,14.44,7.34,29.8,13.09,45.93,15.13,15.63,1.98,31.98.24,46.3-6.58,7.03-3.35,13.71-8.26,17.28-15.36.53-1.06-.37-2.69-1.69-2.2-13.73,5.08-28.44,1.21-42.14-1.95-13.78-3.18-28.68-6.37-42.27-.68-8.03,3.36-15.32,9.61-24.26,10.33-1.91.15-1.93,3.15,0,3h0Z"/>
  </g>
</svg>