<?xml version="1.0" encoding="UTF-8"?>
<svg id="Layer_1" data-name="Layer 1" xmlns="http://www.w3.org/2000/svg" viewBox="0 0 115.28 177.23">
  <defs>
    <style>
      .cls-1 {
        fill: #009245;
        stroke-width: 0px;
      }
    </style>
  </defs>
  <polygon class="cls-1" points="3.21 169.45 3.21 5.74 10.47 5.74 109.82 159.55 109.82 5.74 113.78 5.74 113.78 173.54 97.28 173.54 6.18 33.46 6.51 170.44 3.21 169.45"/>
  <g>
    <path class="cls-1" d="M2.88,3.44c1.79,44.46,14.68,88.39,37.09,126.4,8.38,14.22,18.55,28.06,32.79,35.88,12.4,6.81,26.76,8.47,40.73,10,1.1-12.61-1.1-25.29-4.15-37.55-2.28-9.19-5.05-18.25-8.41-27.08C82.75,63.4,46.44,23.36,1.52,1.46"/>
    <path class="cls-1" d="M1.38,3.44c.62,15.14,2.5,30.23,5.61,45.06s7.39,29.23,12.87,43.27c5.46,13.98,12.03,27.55,19.77,40.42,7.08,11.79,15.45,23.26,26.78,31.31,12.22,8.69,27.03,11.4,41.62,13.11,1.82.21,3.65.42,5.47.62.85.09,1.44-.77,1.5-1.5,1.4-16.66-2.57-33.46-7.3-49.32-4.17-13.98-9.68-27.54-16.63-40.36-6.44-11.88-14.07-23.11-22.7-33.52s-18.06-19.77-28.44-28.21S18.49,8.53,6.7,2.39C5.24,1.63,3.76.89,2.28.17.55-.68-.97,1.91.77,2.76c11.76,5.75,22.93,12.7,33.29,20.7,10.42,8.05,20.03,17.16,28.69,27.08s16.45,20.81,23.07,32.29c6.99,12.11,12.67,24.9,17.04,38.18,2.58,7.84,4.77,15.82,6.52,23.89,1.75,8.08,2.96,16.31,2.9,24.6-.01,2.08-.11,4.16-.29,6.23l1.5-1.5c-14.41-1.58-29.42-3.32-42.06-11-11.54-7.01-20.09-17.94-27.18-29.22-15.58-24.81-26.67-52.55-33.23-81.07C7.29,36.68,5.07,20.1,4.38,3.44c-.08-1.92-3.08-1.93-3,0h0Z"/>
  </g>
</svg>