<?xml version="1.0" encoding="UTF-8"?>
<svg id="Layer_1" data-name="Layer 1" xmlns="http://www.w3.org/2000/svg" viewBox="0 0 121.1 206.36">
  <defs>
    <style>
      .cls-1 {
        stroke-width: 0px;
      }

      .cls-1, .cls-2 {
        fill: #009245;
      }

      .cls-2 {
        stroke: #009245;
        stroke-miterlimit: 10;
      }
    </style>
  </defs>
  <polyline class="cls-1" points="13.76 1.38 31.84 1.38 32.69 92.21 33.38 166.72 13.76 166.72"/>
  <polygon class="cls-2" points="32.69 92.73 78.58 92.73 94.78 89.19 103.09 84.57 109.22 77.1 115.57 68.78 119.07 59.15 120.6 47.77 120.6 36.17 117.98 24.79 112.29 15.6 103.97 8.6 92.15 2.91 76.64 .5 63.04 .5 31.84 1.9 31.87 4.44 77.27 3.56 82.3 5.53 87.56 8.6 94.56 15.38 98.28 22.39 100.91 29.39 102.22 37.27 102.66 44.27 102 51.71 101.34 61.56 97.84 71.41 92.37 79.51 86.9 85.88 79.24 89.19 72.45 89.19 32.65 89.19 32.69 92.73"/>
  <polyline class="cls-1" points="15.31 166.02 7.43 169.33 1.87 175.63 1.87 181.93 .76 187.14 .76 194.23 .76 199.11 .76 202.42 1.69 206.36 8.03 204 16.7 200.85 20.22 198.64 25.78 195.65 28.56 192.49 31.52 186.82 33.38 181.93 33.38 177.99 33.38 175.47 33.38 171.22 33.38 167.57 33.38 166.02"/>
  <path class="cls-1" d="M14.57,164.72c-3.26,2.19-6.72,4.22-9.82,6.64-2.66,2.08-3.92,5.87-4.42,9.09-.61,3.94-.26,7.9.06,11.85s.64,8.03.47,12.06c-.08,1.93,2.92,1.93,3,0,.15-3.71-.1-7.4-.4-11.1s-.71-7.4-.35-11.08c.29-3,1.22-6.82,3.77-8.7,2.97-2.18,6.14-4.12,9.19-6.17,1.59-1.07.09-3.67-1.51-2.59h0Z"/>
</svg>