<?xml version="1.0" encoding="UTF-8"?>
<svg id="Layer_1" data-name="Layer 1" xmlns="http://www.w3.org/2000/svg" viewBox="0 0 205.8 181.81">
  <defs>
    <style>
      .cls-1 {
        fill: #009245;
        stroke-width: 0px;
      }
    </style>
  </defs>
  <polyline class="cls-1" points="102.85 18.24 102.85 181.81 120.68 181.81 120.68 20.32 164.5 20 164.5 15.76 61.32 15.76 61.32 19.82 111.23 19.82"/>
  <g>
    <path class="cls-1" d="M1.45,2.58c11.82-.03,23.14,4.55,33.48,10.07s20.13,12.08,30.99,16.59c25.48,10.6,54.63,9.08,81.89,4.09,9.49-1.74,18.96-3.88,28.61-4.28,9.65-.4,19.67,1.06,27.84,6.02-13.25-18.86-36.77-29.02-60.15-32.18-23.39-3.16-47.13-.25-70.64,1.88C49.95,6.91,25.81,8.2,3.1,1.96"/>
    <path class="cls-1" d="M1.45,4.08c14.01.04,26.82,6.41,38.72,13.19,6.08,3.47,12.08,7.09,18.35,10.22s12.22,5.43,18.67,7.18c13.12,3.55,26.86,4.46,40.39,3.82,13.88-.66,27.43-3.17,41.06-5.67,14.79-2.71,31.32-4.54,44.85,3.56,1.23.73,2.94-.79,2.05-2.05-14.23-20.12-38.69-30.01-62.42-33.05-30.17-3.86-60.34,2.15-90.46,3.49-16.49.74-33.16.1-49.16-4.26C1.64,0,.84,2.9,2.7,3.4c28.43,7.75,58.09,3.98,86.95,1.37,27.42-2.47,56.18-3.92,82.09,7.07,12.21,5.18,23.49,13.07,31.22,23.99l2.05-2.05c-11.89-7.12-26.26-7.07-39.55-5.13-7.23,1.05-14.37,2.63-21.56,3.86-6.79,1.16-13.63,2.07-20.5,2.61-13.58,1.07-27.38.76-40.72-2.19-6.66-1.47-13.17-3.6-19.36-6.45s-12.41-6.48-18.47-9.98C31.51,8.79,17.28,1.12,1.45,1.08c-1.93,0-1.93,3,0,3h0Z"/>
  </g>
</svg>