<?xml version="1.0" encoding="UTF-8"?>
<svg id="Layer_1" data-name="Layer 1" xmlns="http://www.w3.org/2000/svg" viewBox="0 0 128.45 177.22">
  <defs>
    <style>
      .cls-1 {
        fill: #009245;
        stroke-width: 0px;
      }
    </style>
  </defs>
  <polygon class="cls-1" points="13.28 11.21 60.17 125.7 60.17 177.22 80.55 177.22 80.55 123.79 125.87 30.29 125.87 20.27 125.87 15.98 120.62 11.21 119.67 19.32 121.1 26.48 119.67 33.63 79.12 118.07 34.75 11.21 13.28 11.21"/>
  <path class="cls-1" d="M122.81,36.14c1.79-3.25,4.03-6.32,5.08-9.92s.69-7.28-1.54-10.36c-1.31-1.82-5.24-7.07-7.26-3.18-1.69,3.24.14,7.57.74,10.86.79,4.36.9,9.05-.94,13.17-.78,1.75,1.8,3.28,2.59,1.51,1.62-3.64,2.12-7.57,1.79-11.53-.19-2.2-.58-4.38-1.08-6.53-.23-1.01-.51-2.02-.63-3.05-.05-.43-.08-.86-.08-1.3s.28-1.14.2-1.51c.17-.4-.03-.38-.61.06.22.18.42.37.62.57.3.3.58.61.86.93.65.75,1.29,1.54,1.81,2.39,1.02,1.68,1.32,3.56,1.03,5.5-.61,4.03-3.24,7.4-5.16,10.88-.93,1.69,1.66,3.21,2.59,1.51h0Z"/>
  <g>
    <path class="cls-1" d="M70.01,128.64c-13.53-4.13-23.22-16-31.81-27.45C22.91,80.82,7.99,58.94,3.46,33.7,1.62,23.49,1.56,13.06,1.5,2.68,11.29.06,22.12,1.76,30.69,7.26c7.18,4.61,12.61,11.59,17.07,18.97,12.29,20.36,17.9,44.07,23.33,67.33,2.65,11.36,5.3,22.71,7.96,34.07-2.31.09-4.62.17-6.93.26"/>
    <path class="cls-1" d="M70.41,127.2c-8.54-2.66-15.49-8.51-21.42-15.03-6.27-6.91-11.75-14.58-17.15-22.17-11.1-15.61-21.24-32.43-25.78-51.22C3.2,26.95,3.07,14.78,3,2.68l-1.1,1.45c9.55-2.5,19.92-.84,28.21,4.54s14,13.85,18.68,22.34c10.09,18.32,15.2,38.83,19.95,59.04,2.97,12.65,5.91,25.32,8.87,37.98l1.45-1.9c-2.31.09-4.62.17-6.93.26-1.92.07-1.93,3.07,0,3,2.31-.09,4.62-.17,6.93-.26,1-.04,1.67-.93,1.45-1.9-2.75-11.79-5.5-23.58-8.26-35.37-2.44-10.43-4.92-20.87-8.06-31.12-3.15-10.28-6.99-20.39-12.06-29.89-4.71-8.82-10.48-17.48-18.63-23.49C24.27.58,12.15-1.65,1.1,1.24.47,1.4,0,2.03,0,2.68c.06,11.14.17,22.36,2.37,33.32,1.95,9.66,5.44,18.94,9.82,27.75s9.83,17.44,15.56,25.64,11.12,15.69,17.38,22.94c6.66,7.71,14.58,14.68,24.47,17.76,1.85.58,2.64-2.32.8-2.89h0Z"/>
  </g>
</svg>